<svg version="1.0" id="Calque_1" xmlns="http://www.w3.org/2000/svg" x="0" y="0" width="110" height="90" viewBox="0 0 110 90" xml:space="preserve"><path fill="#060400" d="M84.917 37.348v6.481h-16.11V60.3l-7.112 2.701V43.829h-15.3v-6.481h15.3V21.777l7.112-2.7v18.271h16.11z"/><path fill="#060400" d="M66.628 2.28c-21.224 0-38.429 17.205-38.429 38.429 0 5.016.971 9.803 2.719 14.196L9.495 69.089c-4.679 3.097-5.96 9.401-2.863 14.079 3.098 4.679 9.401 5.96 14.079 2.863L43.187 71.15a38.253 38.253 0 0 0 23.441 7.987c21.224 0 38.429-17.205 38.429-38.429 0-21.223-17.205-38.428-38.429-38.428zm0 68.944c-16.853 0-30.515-13.662-30.515-30.515 0-16.854 13.662-30.516 30.515-30.516s30.515 13.662 30.515 30.516c.001 16.853-13.661 30.515-30.515 30.515z"/></svg>