<svg version="1.0" id="Calque_1" xmlns="http://www.w3.org/2000/svg" x="0" y="0" width="110" height="90" viewBox="0 0 110 90" xml:space="preserve"><path fill="#060400" d="M54.825 43.817v-7.19h22.019v7.19H54.825z"/><path fill="#060400" d="M66.684 2.279c-21.193 0-38.374 17.18-38.374 38.374 0 5.009.97 9.788 2.715 14.175L9.633 68.992c-4.672 3.093-5.952 9.387-2.859 14.059 3.093 4.672 9.388 5.952 14.059 2.859l22.444-14.859a38.197 38.197 0 0 0 23.407 7.975c21.193 0 38.374-17.18 38.374-38.373 0-21.194-17.181-38.374-38.374-38.374zm0 68.845c-16.829 0-30.471-13.643-30.471-30.471 0-16.829 13.643-30.472 30.471-30.472s30.471 13.643 30.471 30.472-13.642 30.471-30.471 30.471z"/></svg>