<?xml version="1.0" encoding="utf-8"?>
<!-- Generator: Adobe Illustrator 23.0.2, SVG Export Plug-In . SVG Version: 6.00 Build 0)  -->
<svg version="1.1" id="Calque_1" xmlns="http://www.w3.org/2000/svg" xmlns:xlink="http://www.w3.org/1999/xlink" x="0px" y="0px"
	 viewBox="0 0 200 200" style="enable-background:new 0 0 200 200;" xml:space="preserve">
<style type="text/css">
	.st0{fill:#1200FF;}
	.st1{fill:#E52D1F;}
</style>
<path class="st0" d="M1.94,77.45c0.27-4.72,0.83-9.75,3.86-13.37c3.09-3.7,8.06-5.12,12.72-6.35c9.23-2.43,18.46-4.87,27.69-7.3
	c3.5-0.92,7.11-1.9,9.95-4.16c5.2-4.15,6.44-11.38,9.2-17.42c4-8.74,11.51-15.37,19.32-20.97c4.01-2.88,8.66-5.68,13.55-4.98
	c5,0.72,8.79,4.98,11.05,9.5c2.26,4.52,3.47,9.53,5.94,13.94c4.78,8.53,14.39,14.13,24.17,14.07c8.38-0.05,16.2-3.88,24.28-6.1
	c5.47-1.51,11.15-2.3,16.82-2.33c1.65-0.01,3.36,0.06,4.83,0.79c1.48,0.73,2.57,2.04,3.61,3.32c4.62,5.64,9.47,11.91,9.5,19.2
	c0.02,4.57-1.89,8.91-4.02,12.95c-8,15.22-19.61,28.53-33.59,38.54c-2.97,2.12-6.44,4.98-5.78,8.57c0.27,1.45,1.2,2.68,2.17,3.81
	c7.18,8.36,17.11,13.74,26.19,19.98c1.46,1.01,2.95,2.08,3.85,3.61c1.96,3.32,0.59,7.52,0.69,11.38c0.19,7.77,6.48,14.33,6.91,22.09
	c0.37,6.61-4.15,13.2-10.46,15.22c-4.47,1.43-9.31,0.72-13.98,1.25c-7.06,0.8-13.55,4.43-20.6,5.37c-8.23,1.1-16.62-1.59-23.73-5.89
	c-7.11-4.3-13.14-10.13-19.11-15.91c-8.68-8.41-17.37-16.82-26.05-25.22c-20.42,7.82-38.73,23.19-60.59,23.74
	c-3.09,0.08-6.42-0.24-8.8-2.21c-3.97-3.28-3.56-9.45-2.22-14.42c2.46-9.1,6.95-17.62,12.95-24.87
	c3.79-4.58,14.72-10.12,10.01-16.18c-4.05-5.21-16.04-6.98-21.69-10.47C-0.6,99.67,1.26,89.44,1.94,77.45z"/>
</svg>
