<?xml version="1.0" encoding="utf-8"?>
<!-- Generator: Adobe Illustrator 17.0.0, SVG Export Plug-In . SVG Version: 6.00 Build 0)  -->
<!DOCTYPE svg PUBLIC "-//W3C//DTD SVG 1.0//EN" "http://www.w3.org/TR/2001/REC-SVG-20010904/DTD/svg10.dtd">
<svg version="1.0" id="Calque_1" xmlns="http://www.w3.org/2000/svg" xmlns:xlink="http://www.w3.org/1999/xlink" x="0px" y="0px"
	 width="110px" height="90px" viewBox="0 0 110 90" enable-background="new 0 0 110 90" xml:space="preserve">
<g>
	<g>
		<g>
			<path fill="#060400" d="M84.917,37.348v6.481h-16.11V60.3l-7.112,2.701V43.829h-15.3v-6.481h15.3V21.777l7.112-2.7v18.271H84.917
				z"/>
		</g>
		<path fill="#060400" d="M66.628,2.28c-21.224,0-38.429,17.205-38.429,38.429c0,5.016,0.971,9.803,2.719,14.196L9.495,69.089
			c-4.679,3.097-5.96,9.401-2.863,14.079c3.098,4.679,9.401,5.96,14.079,2.863L43.187,71.15c6.488,5.003,14.614,7.987,23.441,7.987
			c21.224,0,38.429-17.205,38.429-38.429C105.057,19.485,87.852,2.28,66.628,2.28z M66.628,71.224
			c-16.853,0-30.515-13.662-30.515-30.515c0-16.854,13.662-30.516,30.515-30.516s30.515,13.662,30.515,30.516
			C97.144,57.562,83.482,71.224,66.628,71.224z"/>
	</g>
</g>
</svg>
