<?xml version="1.0" encoding="utf-8"?>
<!-- Generator: Adobe Illustrator 17.0.0, SVG Export Plug-In . SVG Version: 6.00 Build 0)  -->
<!DOCTYPE svg PUBLIC "-//W3C//DTD SVG 1.0//EN" "http://www.w3.org/TR/2001/REC-SVG-20010904/DTD/svg10.dtd">
<svg version="1.0" id="Calque_1" xmlns="http://www.w3.org/2000/svg" xmlns:xlink="http://www.w3.org/1999/xlink" x="0px" y="0px"
	 width="110px" height="90px" viewBox="0 0 110 90" enable-background="new 0 0 110 90" xml:space="preserve">
<g>
	<g>
		<path fill="#060400" d="M54.825,43.817v-7.19h22.019v7.19H54.825z"/>
	</g>
	<path fill="#060400" d="M66.684,2.279c-21.193,0-38.374,17.18-38.374,38.374c0,5.009,0.97,9.788,2.715,14.175L9.633,68.992
		c-4.672,3.093-5.952,9.387-2.859,14.059c3.093,4.672,9.388,5.952,14.059,2.859l22.444-14.859
		c6.479,4.996,14.593,7.975,23.407,7.975c21.193,0,38.374-17.18,38.374-38.373C105.058,19.459,87.877,2.279,66.684,2.279z
		 M66.684,71.124c-16.829,0-30.471-13.643-30.471-30.471c0-16.829,13.643-30.472,30.471-30.472s30.471,13.643,30.471,30.472
		C97.155,57.482,83.513,71.124,66.684,71.124z"/>
</g>
</svg>
