<svg xmlns="http://www.w3.org/2000/svg"><defs><font id="bluu_nextbold_italic" horiz-adv-x="507"><font-face units-per-em="1000" ascent="740" descent="-260"/><glyph horiz-adv-x="0"/><glyph horiz-adv-x="200"/><glyph horiz-adv-x="200"/><glyph horiz-adv-x="200"/><glyph unicode="!" horiz-adv-x="217" d="M163 657l-46-437H83L36 657l64 46zM23 66l82 93 81-93-81-92z"/><glyph unicode="&quot;" horiz-adv-x="246" d="M72 479l-38 3 4 221 71-7zm111-10l-38 3 4 221 71-6z"/><glyph unicode="#" horiz-adv-x="485" d="M195 429h135l45 179h26l-44-179h103v-50H344l-35-152h124v-51H297L252 0h-27l45 176H135L89 0H63l45 176H25v51h96l35 152H52v50h116l44 179h27zm-48-202h136l35 152H182z"/><glyph unicode="$" horiz-adv-x="449" d="M184-7Q141-5 99 3.5T31 24L20 233h10q19-73 60.5-126.5T184 34v209q-95 42-128 83.5T23 428q0 70 43 115t119 52v54h62l-2-53h91l42 13V421l-7 1q-18 52-51 87t-76 50l-7-189q64-27 86.5-39t38.5-24q32-24 47.5-53.5T425 187q0-90-51.5-139.5T224-7l-2-51h-38v51zm1 575q-35-2-56-23t-21-56q0-29 18.5-52t58.5-44v175zm145-464q0 36-22 63.5T232 221l-7-195h7q42 0 70 21.5t28 56.5z"/><glyph unicode="%" horiz-adv-x="716" d="M30 494q0 84 43.5 142.5T188 695q56 0 90.5-48T313 526q0-84-43.5-142.5T155 325q-56 0-90.5 48T30 494zM211 0h-58l343 695h58zm-24 365q24 0 38 28.5t14 70.5q0 81-23 136t-59 55q-26 0-39-24t-13-75q0-81 23-136t59-55zm212-196q0 84 43.5 142.5T557 370q56 0 90.5-48T682 201q0-84-43.5-142.5T524 0q-56 0-90.5 48T399 169zM556 40q24 0 38 28.5t14 70.5q0 81-23 136t-59 55q-26 0-39-24t-13-75q0-81 23-136t59-55z"/><glyph unicode="&amp;" horiz-adv-x="690" d="M447 317l194 64 3-6-76-78q3-59-20.5-120.5T479 70Q436 26 378.5 3.5T252-19q-86 0-146 42T46 135q0 31 9 57.5T83 243q15 19 37.5 36.5T173 312q24 13 61.5 29t43.5 18q-117 17-163.5 48T68 490q0 45 34.5 89t95.5 73q44 21 97.5 32T410 695l35-116-5-5-136 92q-43 0-70-44t-27-121q0-55 27.5-90t68.5-35q27 0 47.5 4.5T404 399l13-40q-31 0-47 .5t-30 1.5q-70-21-105.5-71.5T199 161q0-75 24-111.5T303 13q48 0 94.5 24.5T479 106q35 43 50 93t7 98l-87 15z"/><glyph unicode="'" horiz-adv-x="134" d="M71 474l-38 3 4 221 71-6z"/><glyph unicode="(" horiz-adv-x="266" d="M95 528q15 27 33 52.5t42 52.5q21 23 54.5 56.5L261 726l14-15q-96-102-139-206T93 276t43.5-229.5T275-159l-14-15q-74 67-108.5 109.5T94 23Q65 78 51 141T37 276q0 35 3.5 67.5T51 407q7 32 18 62t26 59z"/><glyph unicode=")" horiz-adv-x="290" d="M15-159Q110-58 153.5 46.5T197 276t-43 229T15 711l14 15q3-3 36.5-36t53.5-56q24-27 42.5-53t33.5-53q15-29 26-59.5t19-62.5q6-31 9.5-63t3.5-67q0-72-14-135T196 23q-24-45-58.5-87.5T29-174z"/><glyph unicode="*" horiz-adv-x="335" d="M178 529h-18l-26 117 34 42 35-40zm-30-6l-9-16-111 36-15 52 51 10zm49-16l-9 16 83 82 52-10-16-52zm-58-16l9-16-84-83-51 11 15 52zm49-16l9 16 110-36 16-52-52-11zm-28-4h18l26-117-34-42-35 40z"/><glyph unicode="+" horiz-adv-x="530" d="M293 310h180v-72H293V40h-78v198H45v72h170v188h78V310z"/><glyph unicode="," horiz-adv-x="227" d="M113 159q31-20 54-48t23-49q0-45-33-90.5T50-123l-13 10q30 26 46 53T99-9q0 10-3 18T71 43L34 74z"/><glyph unicode="-" horiz-adv-x="294" d="M264 244H41v76h223v-76z"/><glyph unicode="." horiz-adv-x="181" d="M9 66l82 93 81-93-81-92z"/><glyph unicode="/" horiz-adv-x="445" d="M111 0H37l297 695h74z"/><glyph unicode="0" horiz-adv-x="561" d="M51 268q0 138 71.5 236T307 602q90 0 146.5-81T510 320q0-138-71.5-236T254-14q-90 0-146.5 81T51 268zM305 31q39 0 63 54t24 126q0 145-39 245.5T257 557q-42 0-64-46.5T171 377q0-145 38.5-245.5T305 31z"/><glyph unicode="1" horiz-adv-x="382" d="M43 384l-1 2 208 221V66l90-66H51l85 66v354z"/><glyph unicode="2" horiz-adv-x="528" d="M477 240L457 0H53l-7 33q116 95 188.5 210T307 458q0 50-28.5 80T202 568q-45 0-77.5-33.5T63 422h-5v173h130q110 0 179-42t69-113q0-50-32-98T270 212q-49-39-70.5-59T164 116l2-5 59 5 193 3 55 121h4z"/><glyph unicode="3" horiz-adv-x="502" d="M447 186q0-47-41.5-87T285 30Q230 9 164.5-3.5T53-16L45 9q102 0 176.5 39T296 152q0 55-37.5 88.5T136 291q-3-1-6-1.5l-9-1.5q-6-2-9-2.5t-6-1.5l-2 17 32 12q102 38 137.5 72t35.5 76q0 48-31.5 77T193 567q-39 0-68.5-29.5T63 425h-5v170h147q113 0 173-30.5t60-89.5q0-49-52-86t-169-70q114-10 172-43.5t58-89.5z"/><glyph unicode="4" horiz-adv-x="568" d="M394 193h122v-45H394V66l90-66H195l84 66v83H47l229 446h139L145 194h133v80l116 178V193z"/><glyph unicode="5" horiz-adv-x="481" d="M391 476H125l-19-122 37 21q24 11 48 16.5t47 5.5q76 0 132.5-53T427 213q0-102-68.5-157T164 1H49q2 53 3 96t1 76h7q11-26 25.5-49.5T119 79q23-25 48-37.5T217 29q51 0 72 33.5T310 173q0 97-26.5 140.5T204 357q-18 0-44.5-9.5T101 320h-4l-5-27H59l40 294 1 9h270l57 51-11-51z"/><glyph unicode="6" horiz-adv-x="508" d="M240-12q-85 0-137.5 56T50 193q0 126 110.5 247T442 631l6-19q-101-48-172-125.5T181 319q28 20 55 31t48 11q74 0 121.5-48.5T453 184q0-78-61.5-137T240-12zm101 175q0 68-31 112.5T238 320q-21 0-34-5.5T175 294q-5-22-7.5-47.5T165 192q0-84 24-129t70-45q37 0 59.5 44T341 163z"/><glyph unicode="7" horiz-adv-x="483" d="M48 402h-3v193h408L125-40 93-24l246 499H96z"/><glyph unicode="8" horiz-adv-x="495" d="M158 294q-48 25-74.5 64.5T57 444q0 70 54 118t139 48q61 0 100.5-33.5T390 487q0-39-17.5-70T316 357q65-32 97-77t32-104q0-84-64-137.5T224-15q-79 0-126.5 39.5T50 130q0 48 25.5 87.5T158 294zm-16 192q0-22 14-40t46-35q17-10 50-24.5t42-18.5q31 25 45.5 50.5T354 475q0 52-30.5 81T241 585q-43 0-71-27t-28-72zm211-362q0 34-13.5 59.5T297 228q-23 15-67.5 34T184 281q-45-26-71.5-65.5T86 134q0-53 38-88.5T225 10q59 0 93.5 30.5T353 124z"/><glyph unicode="9" horiz-adv-x="503" d="M256 610q85 0 137.5-56T446 405q0-126-110.5-247T54-33l-6 19q101 48 172 125.5T315 279q-28-20-55-31t-48-11q-74 0-121.5 48.5T43 414q0 78 61.5 137T256 610zM155 435q0-68 31-112.5t72-44.5q21 0 34 5.5t29 20.5q5 22 7.5 47.5T331 406q0 84-24 129t-70 45q-37 0-59.5-44T155 435z"/><glyph unicode=":" horiz-adv-x="181" d="M9 335l82 93 81-93-81-92zM9 66l82 93 81-93-81-92z"/><glyph unicode=";" horiz-adv-x="243" d="M45 351l82 93 81-93-81-92zm81-192q31-20 54-48t23-49q0-45-33-90.5T63-123l-13 10q30 26 46 53t16 51q0 11-4 20.5T84 43L47 74z"/><glyph unicode="&lt;" horiz-adv-x="516" d="M39 292l426 173v-72L130 252l335-140V40L39 212h-2v81z"/><glyph unicode="=" horiz-adv-x="487" d="M426 405v-72H45v72h381zm0-204v-72H45v72h381z"/><glyph unicode="&gt;" horiz-adv-x="516" d="M472 212L46 40v72l335 140L46 393v72l426-173 1 1v-81h-1z"/><glyph unicode="?" horiz-adv-x="504" d="M106 525l-8-1-23 171h82q155 0 224.5-38T451 540q0-39-21.5-73T365 404q-33-22-88.5-47T214 328l-11-108h-23l-17 122q63 23 103 72.5T306 518q0 69-19 104.5T232 658q-46 0-76-31t-50-102zm6-459l81 93 81-93-81-92z"/><glyph unicode="@" horiz-adv-x="685" d="M653 250q0-42-9-77t-29-71L314 73l47 137q-49-61-93.5-94T188 83q-36 0-55 22.5T114 172q0 49 24.5 99t68.5 89q43 40 94 60t101 17l38-3 85 5-99-294 47-26 125 11q14 30 20 59t6 60q0 120-85 205t-205 85-205-85-85-205 85-205 205-85q62 0 118 25.5T550 56l20-20q-45-50-107-77.5T334-69q-132 0-225.5 93.5T15 250t93.5 225.5T334 569t225.5-93.5T653 250zm-451-15q0-34 12-48t43-14q25 0 60.5 25t57.5 57l56 155q-89 10-159-43.5T202 235z"/><glyph unicode="A" horiz-adv-x="727" d="M412 0l87 69-58 145H194L142 78l91-78H22l68 79 242 616h44L634 67l71-67H412zm-97 533L211 259h213z"/><glyph unicode="B" horiz-adv-x="630" d="M110 106v475L53 685h218q135 0 202-37.5T540 534q0-52-36-91.5T389 372q96-23 144.5-70T582 183q0-87-87.5-135T263 0H53zm307 408q0 69-37.5 104T267 653h-33V378q86 0 134.5 36.5T417 514zm25-328q0 86-49.5 126.5T234 353V39h30q79 0 128.5 40T442 186z"/><glyph unicode="C" horiz-adv-x="651" d="M405 685h149V482h-6q-35 78-87 120t-115 42q-76 0-117.5-63.5T187 406q0-138 52.5-219.5T385 105q66 0 116.5 28.5T588 221l14-10Q559 106 488 47T327-12q-126 0-202 91T49 319q0 72 26 140t74 119q49 52 114.5 79.5T405 685z"/><glyph unicode="D" horiz-adv-x="735" d="M126 106v473L56 685h253q178 0 276.5-85.5T684 372q0-171-106.5-271.5T293 0H56zm191 547h-67V38h60q118 0 180.5 82T553 344q0 149-61.5 229T317 653z"/><glyph unicode="E" horiz-adv-x="592" d="M540 217L529 0H52l57 106v475L52 685h459V475h-5L389 649H233V372h260v-45H233V36h165l137 183z"/><glyph unicode="F" horiz-adv-x="562" d="M51 6l58 100v475L51 685h460V475h-4L389 649H232V369h253v-46H232V106L334 0H51v6z"/><glyph unicode="G" horiz-adv-x="687" d="M648 309v-10l-50-37V-6h-15l-90 53q-42-30-83-45t-82-15q-126 0-202 91T50 318q0 72 26 140t74 119q49 52 114.5 79.5T406 684h149V481h-13q-50 93-96 127.5T340 643q-73 0-110.5-60.5T192 405q0-167 52-256t153-89q17 0 39.5 5T476 79v165l-100 54v11h272z"/><glyph unicode="H" horiz-adv-x="780" d="M652 106L722 0H457l71 106v227H241V106L312 0H47l70 106v474L48 685h265l-72-106V378h287v202l-70 105h265l-71-106V106z"/><glyph unicode="I" horiz-adv-x="358" d="M311 0H47l70 106v473L47 685h264l-70-106V106z"/><glyph unicode="J" horiz-adv-x="338" d="M37 685h264l-70-106V4q0-44-37-91.5T93-176l-7 4q9 19 15 47t6 52v652z"/><glyph unicode="K" horiz-adv-x="769" d="M427 0l43 63-179 261-40-42V106L322 0H57l71 106v474L57 686h265l-71-106V345l139 147 107 119-30 75h221l-139-90-166-175L628 76 740 0H427z"/><glyph unicode="L" horiz-adv-x="610" d="M567 217L557 0H53l57 106v475L53 685h253l-72-105V45h198l131 172h4z"/><glyph unicode="M" horiz-adv-x="916" d="M171 96l73-96H49l73 96v485L41 685h188l227-500 205 500h199l-71-82V105L861 0H585l80 104v483L419-12h-7L171 508V96z"/><glyph unicode="N" horiz-adv-x="756" d="M634 58l41-58H527L178 489V86l81-86H63l70 93v465L41 685h157l390-571v485l-82 86h198l-70-93V58z"/><glyph unicode="O" horiz-adv-x="738" d="M51 313q0 168 97.5 276.5T405 698q121 0 201.5-95.5T687 373q0-168-97.5-276.5T333-12q-121 0-201.5 95.5T51 313zM400 30q69 0 111.5 67T554 252q0 169-61 286T338 655q-73 0-112.5-60T186 434q0-170 60-287T400 30z"/><glyph unicode="P" horiz-adv-x="588" d="M52 0l71 106v473L52 685h229q119 0 192-47.5T546 502q0-80-60.5-136.5T334 297q-20-3-43.5-5t-43.5-2V106L332 0H52zm195 324q80 0 121.5 42.5T410 490t-41.5 123T247 655V324z"/><glyph unicode="Q" horiz-adv-x="738" d="M687 373q0-101-38.5-185T539 54l37-173-4-6q-46 17-94.5 46T371-5q-14-1-22.5-1.5T333-7Q211-7 131 86.5T51 313q0 167 97 273.5T405 693q122 0 202-93.5T687 373zM400 35q70 0 112 65t42 152q0 168-61 283T338 650q-73 0-112.5-58T186 434q0-169 60-284T400 35z"/><glyph unicode="R" horiz-adv-x="696" d="M422 339L570 98 671 0H478Q367 197 341.5 239.5T295 312l-45-4V106L320 0H55l71 106v473L55 685h229q133 0 209.5-45.5T570 508q0-53-39.5-97.5T422 339zm-172 2q78 2 129 44t51 111q0 79-45 119t-135 40V341z"/><glyph unicode="S" horiz-adv-x="541" d="M247-8Q198-8 144.5 2T58 28L46 268h12q25-103 86.5-170.5T278 30q42 0 70.5 28.5T377 130q0 31-12 56.5T328 234q-15 12-35.5 24.5T225 293q-55 27-80 43t-43 33q-27 26-40 58.5T49 500q0 82 56 133.5T255 685h136l46 15V484l-12 1q-23 78-74.5 123T233 653q-41 0-66-24.5T142 562t29-74.5T297 407q55-27 81-43t44-32q31-27 45.5-58.5T482 204q0-100-63.5-156T247-8z"/><glyph unicode="T" horiz-adv-x="660" d="M34 466v219h577V466l-6-1-127 185h-96V106L453 0H188l70 106v543h-92L38 465z"/><glyph unicode="U" horiz-adv-x="781" d="M729 685l-86-90-1-3V277q0-58-7.5-96T603 96q-28-52-82-81.5T397-15q-136 0-203.5 60T126 221v359L57 685h265l-71-106V236q0-106 39.5-154.5T432 33q82 0 123 67.5T596 301v294l-81 90h214z"/><glyph unicode="V" horiz-adv-x="681" d="M381 138l161 461-81 86h199l-67-89L366-20h-46L69 626l-50 59h260l-76-61 166-439z"/><glyph unicode="W" horiz-adv-x="1005" d="M720 141l143 457-82 87h199l-64-86L712-12h-58L516 377 380-12h-58L86 626l-49 59h260l-77-61 157-439 9-37 109 288-69 192-47 57h260l-78-61 148-439z"/><glyph unicode="X" horiz-adv-x="722" d="M466 99L329 294 192 94l76-94H21l100 104 174 237-166 238-98 106h301l-77-97 128-175 118 171-69 101h247L567 582 415 371l188-265L705 0H381z"/><glyph unicode="Y" horiz-adv-x="689" d="M406 106L476 0H212l70 106v175L113 579 26 685h306l-81-106h-1l112-189 15-33 125 224-81 104h242l-98-94-159-273V106z"/><glyph unicode="Z" horiz-adv-x="668" d="M609 216L598-1H51l-7 12 399 627H216L90 465h-4l6 229 101-10h408l7-14L204 44h270l131 172h4z"/><glyph unicode="[" horiz-adv-x="214" d="M10 711h181v-46H64v-769h127v-56H10v871z"/><glyph unicode="\" horiz-adv-x="432" d="M111 695L408 0h-74L37 695h74z"/><glyph unicode="]" horiz-adv-x="214" d="M10-160v46h127v779H10v46h181v-871H10z"/><glyph unicode="^" horiz-adv-x="466" d="M273 694l188-412h-72L233 610 77 282H5l188 412v1h81z"/><glyph unicode="_" horiz-adv-x="556" d="M543-60H13V0h530v-60z"/><glyph unicode="`" horiz-adv-x="192" d="M156 552L33 681h120l18-129h-15z"/><glyph unicode="a" d="M323 373q-22-89-64-185T160 0L86-11Q62 6 45.5 55.5T29 163q0 147 86.5 235.5T352 490h114l-38-54V86l74-86H311v257zm-10 88q-78-1-119-64.5T153 217q0-65 6.5-102.5T176 77q8 0 34.5 56.5T263 262q24 65 37 116.5t13 82.5z"/><glyph unicode="b" horiz-adv-x="499" d="M189 150q26 103 56.5 192T305 490l99 18q29-45 47.5-109.5T470 271q0-118-90.5-194.5T140 0H74v576L6 653l183 57V150zm109 249q-8 0-29-53t-42-126q-18-62-28-112t-10-79q78 1 117.5 47.5T346 217q0 70-16 126t-32 56z"/><glyph unicode="c" horiz-adv-x="381" d="M283 504l70-140-3-4-159 67q-13 0-24.5-52T155 269q0-100 18-155t51-55q26 0 63 46.5T357 228l16-10q-34-100-91.5-165T176-12q-68 0-107.5 51.5T29 183q0 108 73 202t171 119h10z"/><glyph unicode="d" horiz-adv-x="517" d="M434 710V70l74-70-191-9v266l12 116q-22-89-64-185T166 0L92-11Q67 7 48 57.5T29 163q0 134 78 222.5T319 488v88l-68 77zM319 461q-80-1-123-67t-43-177q0-62 8.5-101T182 77q8 0 34.5 56.5T269 262q24 65 37 116.5t13 82.5z"/><glyph unicode="e" horiz-adv-x="417" d="M231 59q20 0 42 17t45 51q16 23 29.5 48t24.5 52l16-10q-26-86-88-157.5T177-12q-70 0-109 52.5T29 188q0 50 15.5 102.5T88 388q34 55 77.5 85t88.5 30q25 0 46-8.5t38-25.5q18-17 29.5-41.5T379 388L159 199q7-64 26.5-102T231 59zm-27 413q-25-15-37-66t-12-138q0-9 .5-19t1.5-26l115 109q-1 22-5 43t-11 39q-12 29-28 46.5T204 472z"/><glyph unicode="f" horiz-adv-x="370" d="M348 704l38-131-3-3-147 76q-22 0-32-51.5t5-104.5h161v-24l-161-30V256q0-78-5.5-138.5T187 8q-10-44-36-116t-39-121h-8L94 202v225l-70 63h75q0 21 22 59t55 71q29 29 62.5 48t68.5 27z"/><glyph unicode="g" horiz-adv-x="492" d="M322 373q-22-89-64-185T159 0L85-11Q61 6 44.5 55.5T28 163q0 146 87 235t236 92h114l-38-55q0-28-.5-60t-.5-97-.5-97-.5-60v-8h1l-2-26V75q0-55-25.5-109.5T327-134q-47-46-103.5-72.5T117-233h-6L0-97l6 7q40-33 99.5-58t93.5-25q58 0 84 47.5T310 25v232zm-10 88q-78-1-119-64.5T152 217q0-65 6.5-102.5T175 77q8 0 34.5 56.5T262 262q24 65 37 116.5t13 82.5z"/><glyph unicode="h" horiz-adv-x="533" d="M72 576L4 653l183 57V168q23 88 66.5 186T325 490l98 25q19-58 23.5-107t4.5-206V86l74-86H336v144q0 99-5 163.5T316 409l-8 1q-53-104-87-201T187 61l15-61H72v576z"/><glyph unicode="i" horiz-adv-x="274" d="M48 639l84 92 83-92-83-93zM12 433l183 67V86l74-86H80v356z"/><glyph unicode="j" horiz-adv-x="283" d="M73 639l82 92 81-92-81-93zm28-283l-65 77 179 67V6q0-57-33.5-116.5T85-225l-6 3q11 14 16.5 56T101-63v419z"/><glyph unicode="k" horiz-adv-x="532" d="M80 576l-68 77 183 57V151q29 70 84.5 163T405 503l7 1 75-167-5-2-128 44q-5-9-12.5-19.5T319 325q-9-14-14-21t-9-13q4-6 81-113T486 36l42-46-2-2Q473-9 436.5-.5T376 23q-18 17-36.5 38.5T289 126q-20 28-30.5 41.5T238 192q-22-42-32.5-74.5T195 61l22-61H80v576z"/><glyph unicode="l" horiz-adv-x="274" d="M12 517l68 29v30l-68 77 183 57V86l74-86H80v440z"/><glyph unicode="m" horiz-adv-x="806" d="M78 356l-68 77 183 67V168q23 88 66.5 186T331 490l98 25q19-58 23.5-107t4.5-206v-30q23 87 66 183.5T594 490l98 25q19-58 23.5-107t4.5-206V86l74-83H605v141q0 105-5.5 172T582 419q-48-92-83.5-187.5T457 80V57l14-57H342v144q0 99-5 163.5T322 409l-8 1q-53-104-87-201T193 61l15-61H78v356z"/><glyph unicode="n" horiz-adv-x="543" d="M78 356l-68 77 183 67V168q23 88 66.5 186T331 490l98 25q19-58 23.5-107t4.5-206V86l74-86H342v144q0 99-5 163.5T322 409l-8 1q-53-104-87-201T193 61l15-61H78v356z"/><glyph unicode="o" horiz-adv-x="501" d="M472 285q0-118-76.5-208.5T218-14q-84 0-136.5 58T29 199q0 125 70 214t172 89q93 0 147-58.5T472 285zm-132-45q0 39-5 73t-15 62q-16 43-41 69t-47 26q-37 0-57-52t-20-152q0-38 4.5-73t13.5-65q15-48 37.5-78.5T251 19q20 0 40.5 25.5T325 114q7 26 11 58t4 68z"/><glyph unicode="p" horiz-adv-x="508" d="M195 174q21 83 50.5 163.5T311 490l99 18q29-45 47.5-109.5T476 271q0-114-78.5-204T195-39v-120l74-56H56l24 66v520l-68 77 183 57V174zm109 225q-8 0-29.5-50T232 230q-17-57-27-104.5T195 50v-63q76 1 116.5 62.5T352 217q0 70-16 126t-32 56z"/><glyph unicode="q" d="M329 373q-22-89-64-185T166 0L92-11Q67 7 48 57.5T29 163q0 144 89.5 234T358 490h76v-628l68-77H284l35 60-2 155v257zm-10 88q-80-1-123-67t-43-177q0-62 8.5-101T182 77q8 0 34.5 56.5T269 262q24 65 37 116.5t13 82.5z"/><glyph unicode="r" horiz-adv-x="409" d="M337 504l84-165-3-4-132 36q-7-3-27-49.5T221 221q-17-50-25.5-91T187 61l8-61H72v356L4 433l183 67V182q24 94 60.5 179.5T324 504h13z"/><glyph unicode="s" horiz-adv-x="343" d="M214 490h71l5-148-6-1q-30 47-65.5 74T152 442q-19 0-27-8.5t-8-29.5q0-17 15.5-37t69.5-64q70-57 92.5-89.5T317 150q0-62-51-106T132 0H50L26 170l3 9q54-79 91-110t72-31q23 0 34.5 10T238 78q0 25-18 50.5T143 199q-63 49-82.5 78T41 335q0 62 49.5 108.5T214 490z"/><glyph unicode="t" horiz-adv-x="364" d="M185 490h159v-11l-159-51V178q0-63 9-89.5T232 62q22 0 51 42t47 96l11-4q-22-86-68-147t-91-61q-57 0-84.5 40T69 147v284L1 490h71l113 170V490z"/><glyph unicode="u" horiz-adv-x="522" d="M441 77l68-77H326v322q-23-88-66.5-186T188 0L98-8Q87 51 83 89.5T79 163v241L5 490l189 20V346q0-106 1.5-170.5T201 73q53 103 89 203.5T326 429l-15 61h130V77z"/><glyph unicode="v" horiz-adv-x="435" d="M352 435l-60 49v6h143q-5-65-26-142.5T356 202q-40-88-90.5-144T159-15L93 358 0 427l180 95 76-439q30 28 54 70.5t39 95.5q17 62 18 117.5T352 435z"/><glyph unicode="w" horiz-adv-x="707" d="M624 435l-60 49v6h143q-5-65-26-142.5T628 202q-40-88-90.5-144T431-15l-49 278Q340 151 282 78T159-15L93 358 0 427l180 95 75-440-1-4q49 46 80 122.5T366 351q-2 10-4.5 21.5T353 413q-6 26-9.5 43t-7.5 34h120l71-408-1-4q31 27 55 70.5t39 97.5q18 63 19 119.5T624 435z"/><glyph unicode="x" horiz-adv-x="541" d="M435 65l84-65H351L222 213q-53-72-67.5-103T140 55l60-55H48q12 34 40 78t119 159L93 427l-73 63h168l114-196q19 27 30 43.5l15 22.5q11 20 16.5 38.5T369 435l-65 55h143q-17-47-49-101.5T316 270z"/><glyph unicode="y" horiz-adv-x="516" d="M35-90q40-33 99.5-58t93.5-25q58 0 84 47.5T339 25v226q-41-108-96.5-177T124-15L87 411 5 490h185l32-405q55 52 86.5 148T340 420v70h113V75q0-55-25.5-109.5T356-134q-47-46-103.5-72.5T146-233h-6L29-97z"/><glyph unicode="z" horiz-adv-x="425" d="M52 498l47-8h313L180 162q28 20 59 30.5t61 10.5q55 0 85-31t30-87q0-54-22-110t-62-101q-41-48-93-73.5T130-225q-36 0-67 11.5T4-179l12 18q38-28 62.5-36t53.5-8q79 0 132 46.5T317-35q0 58-26 92.5T220 92q-43 0-76-11T96 50L48-12H23l280 391H100L39 276l-6-1z"/><glyph unicode="{" horiz-adv-x="296" d="M163 377q-8-16-19.5-30T117 321q-16-13-38.5-24.5T55 284v-4q1-1 23.5-12.5T116 243q16-12 27.5-26t19.5-30q7-16 11-34t4-38q0-13-1.5-24.5T169 59q-6-24-8-40t-2-35q0-61 20.5-93t58.5-32v-21q-79 0-116 38.5T85-4q0 11 2 24.5T94 63q7 32 9 48t2 29q0 33-12.5 61T57 248q-9 7-16.5 10.5T17 267v30q16 5 23.5 8.5T57 316q23 19 35.5 47t12.5 61q0 13-2 29t-9 48q-5 29-7 42.5T85 568q0 81 37 119.5T239 726v-21q-39 0-59.5-32T159 580q0-19 2-35t8-40q6-20 7.5-31.5T178 449q0-20-4-38t-11-34z"/><glyph unicode="|" horiz-adv-x="323" d="M188-150H99v850h89v-850z"/><glyph unicode="}" horiz-adv-x="296" d="M101 187q8 16 19.5 30t26.5 26q16 13 38.5 24.5T209 280v4q-1 1-23.5 12.5T148 321q-16 12-27.5 26T101 377q-7 16-11 34t-4 38q0 13 1.5 24.5T95 505q6 24 8 40t2 35q0 61-20.5 93T26 705v21q79 0 116-38.5T179 568q0-11-2-24.5t-7-42.5q-7-32-9-48t-2-29q0-33 12.5-61t35.5-47q9-7 16.5-10.5T247 297v-30q-16-5-23.5-8.5T207 248q-23-19-35.5-47T159 140q0-13 2-29t9-48q5-29 7-42.5T179-4q0-81-37-119.5T25-162v21q39 0 59.5 32T105-16q0 19-2 35t-8 40q-6 20-7.5 31.5T86 115q0 20 4 38t11 34z"/><glyph unicode="~" horiz-adv-x="399" d="M271 552l44 34 15-6-59-103-148 13-40-43-14 9 63 109z"/><glyph unicode="¡" horiz-adv-x="217" d="M190 411l-82-93-81 93 81 92zM50-180l46 437h34l47-437-64-46z"/><glyph unicode="¢" horiz-adv-x="448" d="M304 550h105V414h-5q-23 35-49.5 58.5T298 506l-43-335q8-2 16-3t18-1q44 0 82.5 28t50.5 62l11-4q-21-82-73.5-139.5T239 49L225-58h-36l10 107q-79 8-126.5 74T25 285q0 99 60 174t160 88l10 102h62zm-62-35q-50-3-76-39t-26-100q0-69 18.5-116t53.5-71z"/><glyph unicode="¤" horiz-adv-x="466" d="M114 397l-64 61 30 32 65-62q20 14 42 21.5t46 7.5q23 0 45-7t41-21l64 61 30-32-62-59q15-19 22.5-42t7.5-48-8-48.5-23-43.5l63-60-30-32-65 62q-18-13-39.5-19.5T233 161q-23 0-45.5 7T146 188l-66-63-30 32 65 62q-15 19-22.5 42T85 309q0 24 7.5 46.5T114 397zm226-88q0 44-31.5 75T233 415t-75-31-31-75 31-75 75-31 75.5 31 31.5 75z"/><glyph unicode="¨" horiz-adv-x="411" d="M51 622l62 76 61-76-61-77zm185 0l62 76 61-76-61-77z"/><glyph unicode="«" horiz-adv-x="512" d="M97 246h85L289 28l-10-10L44 246l235 228 10-17zm211 0h84L499 28l-9-10-236 228 236 228 9-17z"/><glyph unicode="­" horiz-adv-x="446" d="M420 243H26v66h394v-66z"/><glyph unicode="¯" horiz-adv-x="330" d="M280 601H60v39h220v-39z"/><glyph unicode="²" horiz-adv-x="361" d="M336 585l-14-153H38l-5 21q82 61 132.5 134T216 724q0 31-19.5 48.5T143 790q-32 0-55.5-21T45 700h-3v110h91q77 0 126-26.5t49-71.5q0-29-17.5-56.5T234 596q-10-8-51-39t-59-51l2-3q8 1 16 1.5t16 1.5l137 2 39 77h2z"/><glyph unicode="³" horiz-adv-x="340" d="M318 545q0-31-30-56.5T200 444q-38-12-83.5-20T40 416l-5 19q74 0 125 23.5t51 64.5q0 35-26.5 56.5T99 611q-3 0-10-1.5T78 607l-2 11 23 7q73 25 97.5 46.5T221 719q0 30-22.5 48T139 785q-28 0-48.5-18T47 697h-3v108h104q79 0 121.5-19.5T312 728q0-30-35.5-53.5T162 629q76-6 116-27.5t40-56.5z"/><glyph unicode="´" horiz-adv-x="204" d="M48 552H33l18 129h120z"/><glyph unicode="¶" horiz-adv-x="583" d="M247-100q9 18 13 38.5T264-9v280l4 43q-11-5-26.5-8t-28.5-3q-80 0-135.5 53.5T22 490q0 97 61.5 146T264 685l1-1h39v1h138v-2h87l-69-77V0h-66v641h-64V24q0-45-26.5-82.5T250-102z"/><glyph unicode="·" horiz-adv-x="181" d="M9 263l82 93 81-93-81-92z"/><glyph unicode="¸" horiz-adv-x="249" d="M58-72l51 80h26l-21-42q48-11 71.5-26.5T209-96q0-27-29.5-48.5T113-166q-21 0-39 7t-36 22l9 13q16-12 33.5-18t36.5-6q21 0 34 7t13 19q0 14-12.5 22T58-72z"/><glyph unicode="¹" horiz-adv-x="329" d="M68 673l-1 1 146 140V468l64-42H74l59 42v228z"/><glyph unicode="»" horiz-adv-x="512" d="M210 246h-84L19 464l9 10 236-228L28 18l-9 17zm211 0h-85L229 464l10 10 235-228L239 18l-10 17z"/><glyph unicode="¼" horiz-adv-x="745" d="M622 719L192-33h-43l429 752h44zM68 544l-1 1 146 140V339l64-42H74l59 42v228zm569-421h87V94h-87V42l64-42H498l59 42v53H393l162 284h97L462 124h94v51l81 113V123z"/><glyph unicode="½" horiz-adv-x="782" d="M581 719L151-33h-43l429 752h44zM53 544l-1 1 146 140V339l64-42H59l59 42v228zm676-391L715 0H431l-5 21q82 61 132.5 134T609 292q0 31-19.5 48.5T536 358q-32 0-55.5-21T438 268h-3v110h91q77 0 126-26.5t49-71.5q0-29-17.5-56.5T627 164q-10-8-51-39t-59-51l2-3 32 3 137 2 39 77h2z"/><glyph unicode="¾" horiz-adv-x="807" d="M657 719L227-33h-43l429 752h44zM333 425q0-31-30-56.5T215 324q-38-12-83.5-20T55 296l-5 19q74 0 125 23.5t51 64.5q0 35-26.5 56.5T114 491q-3 0-10-1.5T93 487l-2 11 23 7q73 25 97.5 46.5T236 599q0 30-22.5 48T154 665q-28 0-48.5-18T62 577h-3v108h104q79 0 121.5-19.5T327 608q0-30-35.5-53.5T177 509q76-6 116-27.5t40-56.5zm339-302h87V94h-87V42l64-42H533l59 42v53H428l162 284h97L497 124h94v51l81 113V123z"/><glyph unicode="¿" horiz-adv-x="504" d="M333 501l81-92-81-93-81 93zm87-551l8 1 23-171h-82q-155 0-224.5 38T75-65q0 39 21.5 73T161 71q33 22 88.5 47t62.5 29l11 108h23l17-122q-63-23-103-72.5T220-43q0-69 19-104.5t55-35.5q46 0 76 31t50 102z"/><glyph unicode="À" horiz-adv-x="730" d="M354 740L231 869h125l12-129h-14zM201 214L149 78l91-78H29l68 79 242 616h44L641 67l71-67H419l87 69-58 145H201zm232 40L322 533 216 254h217z"/><glyph unicode="Á" horiz-adv-x="730" d="M361 740h-14l13 129h124zM201 214L149 78l91-78H29l68 79 242 616h44L641 67l71-67H419l87 69-58 145H201zm232 40L322 533 216 254h217z"/><glyph unicode="Â" horiz-adv-x="730" d="M263 740l59 129h79l60-129h-14l-85 70-84-70h-15zm-62-526L149 78l91-78H29l68 79 242 616h44L641 67l71-67H419l87 69-58 145H201zm232 40L322 533 216 254h217z"/><glyph unicode="Ã" horiz-adv-x="727" d="M428 840q8 0 17 7t25 27l14-6-56-101q-3 0-59 5.5t-88 5.5q-7 0-16.5-10.5T243 735l-13 9 60 107q2 0 55-5.5t83-5.5zM412 0l87 69-58 145H194L142 78l91-78H22l68 79 242 616h44L634 67l71-67H412zm-97 533L211 259h213z"/><glyph unicode="Ä" horiz-adv-x="730" d="M169 830l73 87 74-87-74-88zm222 0l74 87 73-87-73-88zM201 214L149 78l91-78H29l68 79 242 616h44L641 67l71-67H419l87 69-58 145H201zm232 40L322 533 216 254h217z"/><glyph unicode="Å" horiz-adv-x="730" d="M454 829q0-40-27.5-69T361 731q-39 0-66.5 28.5T267 829t27.5 69.5T361 927q38 0 65.5-29t27.5-69zm-33 0q0 26-17.5 45T361 893t-43-19-18-45 18-45 43-19 42.5 19 17.5 45zM201 214L149 78l91-78H29l68 79 242 616h44L641 67l71-67H419l87 69-58 145H201zm232 40L322 533 216 254h217z"/><glyph unicode="Æ" horiz-adv-x="910" d="M853 0H376l57 106v108H218L141 76l79-76H21l72 85 306 540-73 61h188l-1-1h322V475h-5L713 649H557V372h260v-40H557V36h165l137 183 5-2zM433 598l-3 3-13-26-177-321h193v344z"/><glyph unicode="Ç" horiz-adv-x="651" d="M187 406q0-138 52.5-219.5T385 105q66 0 116.5 28.5T588 221l14-10Q561 110 493 51T340-12l-11-22q22-9 35-14.5t16-7.5q18-9 26.5-19t8.5-21q0-34-27-54.5T321-171q-22 0-40 7.5T243-137l11 18q14-14 31-21t38-7 35 6.5 14 16.5q0 11-10.5 19T327-91l-30 6-29 6v3l43 64Q191-5 120 85T49 319q0 72 26 140t74 119q49 52 114.5 79.5T405 685h149V482h-6q-35 78-87 120t-115 42q-76 0-117.5-63.5T187 406z"/><glyph unicode="È" horiz-adv-x="592" d="M326 740L203 869h124l13-129h-14zm185-265h-5L389 649H233V372h260v-40H233V36h165l137 183 5-2L529 0H52l57 106v475L52 685h459V475z"/><glyph unicode="É" horiz-adv-x="592" d="M274 740h-14l12 129h125zm237-265h-5L389 649H233V372h260v-40H233V36h165l137 183 5-2L529 0H52l57 106v475L52 685h459V475z"/><glyph unicode="Ê" horiz-adv-x="592" d="M204 740l59 129h79l60-129h-15l-84 70-85-70h-14zm307-265h-5L389 649H233V372h260v-40H233V36h165l137 183 5-2L529 0H52l57 106v475L52 685h459V475z"/><glyph unicode="Ë" horiz-adv-x="592" d="M119 829l74 87 73-87-73-88zm223 0l74 87 72-87-72-88zm169-354h-5L389 649H233V372h260v-40H233V36h165l137 183 5-2L529 0H52l57 106v475L52 685h459V475z"/><glyph unicode="Ì" horiz-adv-x="358" d="M202 740L79 869h125l12-129h-14zM311 0H47l70 106v473L47 685h264l-70-106V106z"/><glyph unicode="Í" horiz-adv-x="358" d="M157 740h-14l12 129h125zM311 0H47l70 106v473L47 685h264l-70-106V106z"/><glyph unicode="Î" horiz-adv-x="358" d="M83 740l59 129h79l60-129h-14l-85 70-85-70H83zM311 0H47l70 106v473L47 685h264l-70-106V106z"/><glyph unicode="Ï" horiz-adv-x="446" d="M39 830l73 87 74-87-74-88zm221 0l74 87 73-87-73-88zM355 0H91l70 106v473L91 685h264l-70-106V106z"/><glyph unicode="Ð" horiz-adv-x="708" d="M111 378v201L40 685h254q177 0 270.5-80T658 382q0-179-101-280.5T278 0H40l71 106v222H40v50h71zm263-50H235V38h60q114 0 171.5 77T524 344q0 153-56 231t-167 78h-66V378h139v-50z"/><glyph unicode="Ñ" horiz-adv-x="756" d="M448 808q9 0 18.5 7.5T490 842l14-6-56-101-57 5.5-89 5.5q-7 0-15.5-8.5T263 703l-13 9 60 107q2 0 55-5.5t83-5.5zM634 58l41-58H527L178 489V86l81-86H63l70 93v465L41 685h157l390-571v485l-82 86h198l-70-93V58z"/><glyph unicode="Ò" horiz-adv-x="738" d="M339 740L216 869h124l13-129h-14zM51 313q0 168 97.5 276.5T405 698q121 0 201.5-95.5T687 373q0-168-97.5-276.5T333-12q-121 0-201.5 95.5T51 313zM400 30q69 0 111.5 67T554 252q0 169-61 286T338 655q-73 0-112.5-60T186 434q0-170 60-287T400 30z"/><glyph unicode="Ó" horiz-adv-x="738" d="M347 740h-14l12 129h125zM51 313q0 168 97.5 276.5T405 698q121 0 201.5-95.5T687 373q0-168-97.5-276.5T333-12q-121 0-201.5 95.5T51 313zM400 30q69 0 111.5 67T554 252q0 169-61 286T338 655q-73 0-112.5-60T186 434q0-170 60-287T400 30z"/><glyph unicode="Ô" horiz-adv-x="738" d="M268 740l59 129h79l60-129h-14l-85 70-85-70h-14zM51 313q0 168 97.5 276.5T405 698q121 0 201.5-95.5T687 373q0-168-97.5-276.5T333-12q-121 0-201.5 95.5T51 313zM400 30q69 0 111.5 67T554 252q0 169-61 286T338 655q-73 0-112.5-60T186 434q0-170 60-287T400 30z"/><glyph unicode="Õ" horiz-adv-x="738" d="M280 773q-7 0-15-9t-23-34l-13 9 60 107q2 0 55-5.5t83-5.5q9 0 19 8t23 26l14-6-56-101q-3 0-59 5.5t-88 5.5zM51 313q0 168 97.5 276.5T405 698q121 0 201.5-95.5T687 373q0-168-97.5-276.5T333-12q-121 0-201.5 95.5T51 313zM400 30q69 0 111.5 67T554 252q0 169-61 286T338 655q-73 0-112.5-60T186 434q0-170 60-287T400 30z"/><glyph unicode="Ö" horiz-adv-x="738" d="M180 828l75 87 72-87-72-88zm223 0l75 87 72-87-72-88zM51 313q0 168 97.5 276.5T405 698q121 0 201.5-95.5T687 373q0-168-97.5-276.5T333-12q-121 0-201.5 95.5T51 313zM400 30q69 0 111.5 67T554 252q0 169-61 286T338 655q-73 0-112.5-60T186 434q0-170 60-287T400 30z"/><glyph unicode="×" horiz-adv-x="393" d="M247 254l124-130-51-51-123 129L73 72l-51 57 122 128L31 376l51 51 112-118 117 123 51-57z"/><glyph unicode="Ø" horiz-adv-x="752" d="M590 630l52 60h64l-82-96q35-44 54-102t19-119q0-168-97.5-276.5T343-12q-51 0-96.5 18T165 58L110-5H46l86 100q-34 44-52.5 101T61 313q0 168 97.5 276.5T415 698q50 0 94.5-17.5T590 630zm-243 25q-73 0-112-60t-39-161q0-62 8.5-119T230 209l276 322q-31 61-71.5 92.5T347 655zm63-625q69 0 111.5 67T564 252q0 62-9.5 120.5T526 481L250 159q30-62 71-95.5T410 30z"/><glyph unicode="Ù" horiz-adv-x="763" d="M435 740L313 869h124l13-129h-15zM56 685h265l-70-106V236q0-106 39.5-154.5T432 33q81 0 122 67.5T595 301v294l-73 90h190l-71-90V277q0-60-8-98t-31-83q-27-52-81.5-81.5T396-15q-135 0-202.5 60T126 221v359z"/><glyph unicode="Ú" horiz-adv-x="763" d="M397 740h-14l12 129h125zM56 685h265l-70-106V236q0-106 39.5-154.5T432 33q81 0 122 67.5T595 301v294l-73 90h190l-71-90V277q0-60-8-98t-31-83q-27-52-81.5-81.5T396-15q-135 0-202.5 60T126 221v359z"/><glyph unicode="Û" horiz-adv-x="763" d="M313 740l59 129h79l60-129h-15l-84 70-85-70h-14zM56 685h265l-70-106V236q0-106 39.5-154.5T432 33q81 0 122 67.5T595 301v294l-73 90h190l-71-90V277q0-60-8-98t-31-83q-27-52-81.5-81.5T396-15q-135 0-202.5 60T126 221v359z"/><glyph unicode="Ü" horiz-adv-x="763" d="M230 828l77 91 77-91-77-92zm233 0l78 91 76-91-76-92zM56 685h265l-70-106V236q0-106 39.5-154.5T432 33q81 0 122 67.5T595 301v294l-73 90h190l-71-90V277q0-60-8-98t-31-83q-27-52-81.5-81.5T396-15q-135 0-202.5 60T126 221v359z"/><glyph unicode="Ý" horiz-adv-x="689" d="M350 740l12 129h125L364 740h-14zM486 0H202l80 101v180L113 579 26 685h306l-81-106h-1l112-189 15-33 125 224-81 104h242l-98-94-159-273V101z"/><glyph unicode="Þ" horiz-adv-x="605" d="M317 685l-70-106v-21h34q119 0 192-47.5T546 375q0-80-60.5-136.5T334 170q-20-3-43.5-5t-43.5-2v-57L332 0H52l71 106v473L52 685h265zm-70-488q80 0 121.5 42.5T410 363t-41.5 123T247 528V197z"/><glyph unicode="ß" horiz-adv-x="584" d="M100 202v225l-70 63h75q0 73 70.5 138.5T328 694q61 0 92.5-30t31.5-89q0-35-22.5-74.5T350 404q89-65 135-129.5T531 150q0-62-51-106T347 0h-72l10 125h3q15-39 47-63t71-24q24 0 35 12t11 38q0 45-38.5 98T268 328q66 81 87.5 125.5T377 543q0 55-23 89t-58 34q-52 0-75.5-55.5T215 490V256q0-78-5.5-138.5T193 8q-10-44-36-116t-39-121h-8z"/><glyph unicode="à" d="M287 552L164 681h120l18-129h-15zm36-179q-22-89-64-185T160 0L86-11Q62 6 45.5 55.5T29 163q0 147 86.5 235.5T352 490h114l-38-54V86l74-86H311v257zm-10 88q-78-1-119-64.5T153 217q0-65 6.5-102.5T176 77q8 0 34.5 56.5T263 262q24 65 37 116.5t13 82.5z"/><glyph unicode="á" d="M281 552h-15l18 129h120zm42-179q-22-89-64-185T160 0L86-11Q62 6 45.5 55.5T29 163q0 147 86.5 235.5T352 490h114l-38-54V86l74-86H311v257zm-10 88q-78-1-119-64.5T153 217q0-65 6.5-102.5T176 77q8 0 34.5 56.5T263 262q24 65 37 116.5t13 82.5z"/><glyph unicode="â" d="M191 552l49 129h82l49-129-15 3-75 67-75-67zm132-179q-22-89-64-185T160 0L86-11Q62 6 45.5 55.5T29 163q0 147 86.5 235.5T352 490h114l-38-54V86l74-86H311v257zm-10 88q-78-1-119-64.5T153 217q0-65 6.5-102.5T176 77q8 0 34.5 56.5T263 262q24 65 37 116.5t13 82.5z"/><glyph unicode="ã" d="M219 606q-8 0-16.5-9.5T181 563l-14 9 60 109q8-1 18-2t29-4q36-4 53.5-5.5T360 668q8 0 17 7t25 27l14-6-56-103q-9 1-19.5 2t-31.5 4q-37 4-55.5 5.5T219 606zm104-233q-22-89-64-185T160 0L86-11Q62 6 45.5 55.5T29 163q0 147 86.5 235.5T352 490h114l-38-54V86l74-86H311v257zm-10 88q-78-1-119-64.5T153 217q0-65 6.5-102.5T176 77q8 0 34.5 56.5T263 262q24 65 37 116.5t13 82.5z"/><glyph unicode="ä" d="M127 622l62 76 61-76-61-77zm185 0l62 76 61-76-61-77zm11-249q-22-89-64-185T160 0L86-11Q62 6 45.5 55.5T29 163q0 147 86.5 235.5T352 490h114l-38-54V86l74-86H311v257zm-10 88q-78-1-119-64.5T153 217q0-65 6.5-102.5T176 77q8 0 34.5 56.5T263 262q24 65 37 116.5t13 82.5z"/><glyph unicode="å" d="M359 628q0-34-23-58t-55-24-55 24-23 58 23 58 55 24 55-24 23-58zm-28 0q0 22-14.5 37.5T281 681t-35.5-15.5T231 628t14.5-37.5T281 575t35.5 15.5T331 628zm-8-255q-22-89-64-185T160 0L86-11Q62 6 45.5 55.5T29 163q0 147 86.5 235.5T352 490h114l-38-54V86l74-86H311v257zm-10 88q-78-1-119-64.5T153 217q0-65 6.5-102.5T176 77q8 0 34.5 56.5T263 262q24 65 37 116.5t13 82.5z"/><glyph unicode="æ" horiz-adv-x="642" d="M453 59q20 0 42 17t45 51q16 23 29.5 48t24.5 52l16-10q-26-86-88-157.5T399-12q-70 0-109 52.5T251 188v2q-20-47-45.5-95T151 0L77-11Q53 6 36.5 55.5T20 163q0 157 106 242t313 94q31 7 58 2.5t49-20.5q24-17 39.5-46t15.5-47L381 199q7-64 26.5-102T453 59zm-27 413q-25-15-37-66t-12-138q0-9 .5-19t1.5-26l115 109q-1 22-5 43t-11 39q-12 29-28 46.5T426 472zm-122-11q-78-1-119-64.5T144 217q0-65 6.5-102.5T167 77q8 0 34.5 56.5T254 262q24 65 37 116.5t13 82.5z"/><glyph unicode="ç" horiz-adv-x="381" d="M155 269q0-100 18-155t51-55q26 0 63 46.5T357 228l16-10q-32-92-83-154.5T190-10l-17-35q48-11 71.5-26.5T268-107q0-27-29.5-48.5T172-177q-21 0-39 7t-36 22l9 13q16-12 33.5-18t36.5-6q21 0 34 7t13 19q0 14-12.5 22T117-83l46 72q-63 5-98.5 55.5T29 183q0 108 73 202t171 119h10l70-140-3-4-159 67q-13 0-24.5-52T155 269z"/><glyph unicode="è" horiz-adv-x="417" d="M220 572L97 701h120l18-129h-15zm11-513q20 0 42 17t45 51q16 23 29.5 48t24.5 52l16-10q-26-86-88-157.5T177-12q-70 0-109 52.5T29 188q0 50 15.5 102.5T88 388q34 55 77.5 85t88.5 30q25 0 46-8.5t38-25.5q18-17 29.5-41.5T379 388L159 199q7-64 26.5-102T231 59zm-27 413q-25-15-37-66t-12-138q0-9 .5-19t1.5-26l115 109q-1 22-5 43t-11 39q-12 29-28 46.5T204 472z"/><glyph unicode="é" horiz-adv-x="417" d="M214 572h-15l18 129h120zm17-513q20 0 42 17t45 51q16 23 29.5 48t24.5 52l16-10q-26-86-88-157.5T177-12q-70 0-109 52.5T29 188q0 50 15.5 102.5T88 388q34 55 77.5 85t88.5 30q25 0 46-8.5t38-25.5q18-17 29.5-41.5T379 388L159 199q7-64 26.5-102T231 59zm-27 413q-25-15-37-66t-12-138q0-9 .5-19t1.5-26l115 109q-1 22-5 43t-11 39q-12 29-28 46.5T204 472z"/><glyph unicode="ê" horiz-adv-x="417" d="M124 572l49 129h82l49-129-15 3-75 67-75-67zM231 59q20 0 42 17t45 51q16 23 29.5 48t24.5 52l16-10q-26-86-88-157.5T177-12q-70 0-109 52.5T29 188q0 50 15.5 102.5T88 388q34 55 77.5 85t88.5 30q25 0 46-8.5t38-25.5q18-17 29.5-41.5T379 388L159 199q7-64 26.5-102T231 59zm-27 413q-25-15-37-66t-12-138q0-9 .5-19t1.5-26l115 109q-1 22-5 43t-11 39q-12 29-28 46.5T204 472z"/><glyph unicode="ë" horiz-adv-x="417" d="M60 642l62 76 61-76-61-77zm185 0l62 76 61-76-61-77zM231 59q20 0 42 17t45 51q16 23 29.5 48t24.5 52l16-10q-26-86-88-157.5T177-12q-70 0-109 52.5T29 188q0 50 15.5 102.5T88 388q34 55 77.5 85t88.5 30q25 0 46-8.5t38-25.5q18-17 29.5-41.5T379 388L159 199q7-64 26.5-102T231 59zm-27 413q-25-15-37-66t-12-138q0-9 .5-19t1.5-26l115 109q-1 22-5 43t-11 39q-12 29-28 46.5T204 472z"/><glyph unicode="ì" horiz-adv-x="323" d="M153 552L30 681h120l18-129h-15zM37 433l183 67V86l74-86H105v356z"/><glyph unicode="í" horiz-adv-x="323" d="M147 552h-15l18 129h120zM29 433l183 67V86l74-86H97v356z"/><glyph unicode="î" horiz-adv-x="323" d="M57 552l49 129h82l49-129-15 3-75 67-75-67zM31 433l183 67V86l74-86H99v356z"/><glyph unicode="ï" horiz-adv-x="323" d="M-7 622l62 76 61-76-61-77zm185 0l62 76 61-76-61-77zM30 433l183 67V86l74-86H98v356z"/><glyph unicode="ð" horiz-adv-x="491" d="M245 645l97 64 21-28-88-58q93-71 145-159.5T472 286q0-119-76.5-209.5T218-14q-84 0-136.5 58T29 199q0 126 70 214.5T271 501h31q-16 26-34 49t-38 43l-98-64-20 28 91 60q-27 23-58 41.5T76 693l47 18q30-13 60.5-29.5T245 645zm-90-379q0-38 4.5-73t13.5-65q15-48 37.5-78.5T251 19q51 0 78 56.5T356 239q0 53-7 104t-21 98q-13 10-41.5 19.5T232 470q-37 0-57-52t-20-152z"/><glyph unicode="ñ" horiz-adv-x="543" d="M213 606q-8 0-16.5-9.5T175 563l-14 9 60 109q8-1 18-2t29-4q36-4 53.5-5.5T354 668q8 0 17 7t25 27l14-6-56-103q-9 1-19.5 2t-31.5 4q-37 4-55.5 5.5T213 606zM78 356l-68 77 183 67V168q23 88 66.5 186T331 490l98 25q19-58 23.5-107t4.5-206V86l74-86H342v144q0 99-5 163.5T322 409l-8 1q-53-104-87-201T193 61l15-61H78v356z"/><glyph unicode="ò" horiz-adv-x="501" d="M252 552L129 681h120l18-129h-15zm220-267q0-118-76.5-208.5T218-14q-84 0-136.5 58T29 199q0 125 70 214t172 89q93 0 147-58.5T472 285zm-132-45q0 39-5 73t-15 62q-16 43-41 69t-47 26q-37 0-57-52t-20-152q0-38 4.5-73t13.5-65q15-48 37.5-78.5T251 19q20 0 40.5 25.5T325 114q7 26 11 58t4 68z"/><glyph unicode="ó" horiz-adv-x="501" d="M246 552h-15l18 129h120zm226-267q0-118-76.5-208.5T218-14q-84 0-136.5 58T29 199q0 125 70 214t172 89q93 0 147-58.5T472 285zm-132-45q0 39-5 73t-15 62q-16 43-41 69t-47 26q-37 0-57-52t-20-152q0-38 4.5-73t13.5-65q15-48 37.5-78.5T251 19q20 0 40.5 25.5T325 114q7 26 11 58t4 68z"/><glyph unicode="ô" horiz-adv-x="501" d="M156 552l49 129h82l49-129-15 3-75 67-75-67zm115-50q93 0 147-58.5T472 285q0-118-76.5-208.5T218-14q-84 0-136.5 58T29 199q0 125 70 214t172 89zM155 266q0-38 4.5-73t13.5-65q15-48 37.5-78.5T251 19q20 0 40.5 25.5T325 114q7 26 11 58t4 68q0 39-5 73t-15 62q-16 43-41 69t-47 26q-37 0-57-52t-20-152z"/><glyph unicode="õ" horiz-adv-x="501" d="M184 606q-8 0-16.5-9.5T146 563l-14 9 60 109q8-1 18-2t29-4q36-4 53.5-5.5T325 668q8 0 17 7t25 27l14-6-56-103q-9 1-19.5 2t-31.5 4q-37 4-55.5 5.5T184 606zm87-104q93 0 147-58.5T472 285q0-118-76.5-208.5T218-14q-84 0-136.5 58T29 199q0 125 70 214t172 89zM155 266q0-38 4.5-73t13.5-65q15-48 37.5-78.5T251 19q20 0 40.5 25.5T325 114q7 26 11 58t4 68q0 39-5 73t-15 62q-16 43-41 69t-47 26q-37 0-57-52t-20-152z"/><glyph unicode="ö" horiz-adv-x="501" d="M92 622l62 76 61-76-61-77zm185 0l62 76 61-76-61-77zm-6-120q93 0 147-58.5T472 285q0-118-76.5-208.5T218-14q-84 0-136.5 58T29 199q0 125 70 214t172 89zM155 266q0-38 4.5-73t13.5-65q15-48 37.5-78.5T251 19q20 0 40.5 25.5T325 114q7 26 11 58t4 68q0 39-5 73t-15 62q-16 43-41 69t-47 26q-37 0-57-52t-20-152z"/><glyph unicode="ø" horiz-adv-x="501" d="M399 461l35 46h39l-52-67q25-29 38-68.5t13-86.5q0-118-76.5-208.5T218-14q-34 0-64 10.5T100 27L68-14H29l49 62q-24 29-36.5 67T29 199q0 125 70 214t172 89q38 0 70.5-10.5T399 461zm-167 9q-37 0-57-52t-20-152q0-27 2.5-53.5T165 161l158 204q-15 47-41.5 76T232 470zm93-356q7 26 11 58t4 68q0 22-2 43.5t-5 42.5L175 123q14-46 36-75t40-29q20 0 40.5 25.5T325 114z"/><glyph unicode="ù" horiz-adv-x="522" d="M259 570L136 699h120l18-129h-15zM441 77l68-77H326v322q-23-88-66.5-186T188 0L98-8Q87 51 83 89.5T79 163v241L5 490l189 20V346q0-106 1.5-170.5T201 73q53 103 89 203.5T326 429l-15 61h130V77z"/><glyph unicode="ú" horiz-adv-x="522" d="M253 570h-15l18 129h120zM441 77l68-77H326v322q-23-88-66.5-186T188 0L98-8Q87 51 83 89.5T79 163v241L5 490l189 20V346q0-106 1.5-170.5T201 73q53 103 89 203.5T326 429l-15 61h130V77z"/><glyph unicode="û" horiz-adv-x="522" d="M163 570l49 129h82l49-129-15 3-75 67-75-67zM441 77l68-77H326v322q-23-88-66.5-186T188 0L98-8Q87 51 83 89.5T79 163v241L5 490l189 20V346q0-106 1.5-170.5T201 73q53 103 89 203.5T326 429l-15 61h130V77z"/><glyph unicode="ü" horiz-adv-x="522" d="M99 640l62 76 61-76-61-77zm185 0l62 76 61-76-61-77zM441 77l68-77H326v322q-23-88-66.5-186T188 0L98-8Q87 51 83 89.5T79 163v241L5 490l189 20V346q0-106 1.5-170.5T201 73q53 103 89 203.5T326 429l-15 61h130V77z"/><glyph unicode="ý" horiz-adv-x="516" d="M258 552h-15l18 129h120zM35-90q40-33 99.5-58t93.5-25q58 0 84 47.5T339 25v226q-41-108-96.5-177T124-15L87 411 5 490h185l32-405q55 52 86.5 148T340 420v70h113V75q0-55-25.5-109.5T356-134q-47-46-103.5-72.5T146-233h-6L29-97z"/><glyph unicode="þ" horiz-adv-x="502" d="M189 174q21 83 50.5 163.5T305 490l99 18q29-45 47.5-109.5T470 271q0-114-78.5-204T189-39v-120l74-56H50l24 66v725L6 653l183 57V174zm109 225q-8 0-29.5-50T226 230q-17-57-27-104.5T189 50v-63q76 1 116.5 62.5T346 217q0 70-16 126t-32 56z"/><glyph unicode="ÿ" horiz-adv-x="516" d="M104 622l62 76 61-76-61-77zm185 0l62 76 61-76-61-77zM35-90q40-33 99.5-58t93.5-25q58 0 84 47.5T339 25v226q-41-108-96.5-177T124-15L87 411 5 490h185l32-405q55 52 86.5 148T340 420v70h113V75q0-55-25.5-109.5T356-134q-47-46-103.5-72.5T146-233h-6L29-97z"/><glyph unicode="Ć" horiz-adv-x="651" d="M340 740h-14l12 129h125zm65-55h149V482h-6q-35 78-87 120t-115 42q-76 0-117.5-63.5T187 406q0-138 52.5-219.5T385 105q66 0 116.5 28.5T588 221l14-10Q559 106 488 47T327-12q-126 0-202 91T49 319q0 72 26 140t74 119q49 52 114.5 79.5T405 685z"/><glyph unicode="ć" horiz-adv-x="381" d="M225 552h-15l18 129h120zm58-48l70-140-3-4-159 67q-13 0-24.5-52T155 269q0-100 18-155t51-55q26 0 63 46.5T357 228l16-10q-34-100-91.5-165T176-12q-68 0-107.5 51.5T29 183q0 108 73 202t171 119h10z"/><glyph unicode="Ĉ" horiz-adv-x="651" d="M267 740l59 129h79l60-129h-14l-85 70-85-70h-14zm138-55h149V482h-6q-35 78-87 120t-115 42q-76 0-117.5-63.5T187 406q0-138 52.5-219.5T385 105q66 0 116.5 28.5T588 221l14-10Q559 106 488 47T327-12q-126 0-202 91T49 319q0 72 26 140t74 119q49 52 114.5 79.5T405 685z"/><glyph unicode="ĉ" horiz-adv-x="381" d="M135 552l49 129h82l49-129-15 3-75 67-75-67zm148-48l70-140-3-4-159 67q-13 0-24.5-52T155 269q0-100 18-155t51-55q26 0 63 46.5T357 228l16-10q-34-100-91.5-165T176-12q-68 0-107.5 51.5T29 183q0 108 73 202t171 119h10z"/><glyph unicode="ċ" horiz-adv-x="381" d="M149 621l76 78 75-78-75-79zm134-117l70-140-3-4-159 67q-13 0-24.5-52T155 269q0-100 18-155t51-55q26 0 63 46.5T357 228l16-10q-34-100-91.5-165T176-12q-68 0-107.5 51.5T29 183q0 108 73 202t171 119h10z"/><glyph unicode="Č" horiz-adv-x="651" d="M359 799l85 70h14l-60-129h-79l-59 129h15zm46-114h149V482h-6q-35 78-87 120t-115 42q-76 0-117.5-63.5T187 406q0-138 52.5-219.5T385 105q66 0 116.5 28.5T588 221l14-10Q559 106 488 47T327-12q-126 0-202 91T49 319q0 72 26 140t74 119q49 52 114.5 79.5T405 685z"/><glyph unicode="č" horiz-adv-x="381" d="M225 611l75 67 15 3-49-129h-82l-49 129 15-3zm58-107l70-140-3-4-159 67q-13 0-24.5-52T155 269q0-100 18-155t51-55q26 0 63 46.5T357 228l16-10q-34-100-91.5-165T176-12q-68 0-107.5 51.5T29 183q0 108 73 202t171 119h10z"/><glyph unicode="Ď" horiz-adv-x="735" d="M349 799l85 70h14l-60-129h-79l-59 129h14zM126 106v473L56 685h253q178 0 276.5-85.5T684 372q0-171-106.5-271.5T293 0H56zm191 547h-67V38h60q118 0 180.5 82T553 344q0 149-61.5 229T317 653z"/><glyph unicode="ď" horiz-adv-x="691" d="M577 711q31-20 54-48t23-49q0-45-33-90.5T514 429l-13 10q30 26 46 53t16 51q0 10-3 18t-25 34l-37 31zm-143-1V70l74-70-191-9v266l12 116q-22-89-64-185T166 0L92-11Q67 7 48 57.5T29 163q0 134 78 222.5T319 488v88l-68 77zM319 461q-80-1-123-67t-43-177q0-62 8.5-101T182 77q8 0 34.5 56.5T269 262q24 65 37 116.5t13 82.5z"/><glyph unicode="Ė" horiz-adv-x="592" d="M234 820l68 80 66-80-66-81zm277-345h-5L389 649H233V372h260v-40H233V36h165l137 183 5-2L529 0H52l57 106v475L52 685h459V475z"/><glyph unicode="ė" horiz-adv-x="417" d="M138 641l76 78 75-78-75-79zm93-582q20 0 42 17t45 51q16 23 29.5 48t24.5 52l16-10q-26-86-88-157.5T177-12q-70 0-109 52.5T29 188q0 50 15.5 102.5T88 388q34 55 77.5 85t88.5 30q25 0 46-8.5t38-25.5q18-17 29.5-41.5T379 388L159 199q7-64 26.5-102T231 59zm-27 413q-25-15-37-66t-12-138q0-9 .5-19t1.5-26l115 109q-1 22-5 43t-11 39q-12 29-28 46.5T204 472z"/><glyph unicode="Ě" horiz-adv-x="592" d="M307 799l85 70h14l-60-129h-79l-59 129h15zm204-324h-5L389 649H233V372h260v-40H233V36h165l137 183 5-2L529 0H52l57 106v475L52 685h459V475z"/><glyph unicode="ě" horiz-adv-x="417" d="M214 631l75 67 15 3-49-129h-82l-49 129 15-3zm17-572q20 0 42 17t45 51q16 23 29.5 48t24.5 52l16-10q-26-86-88-157.5T177-12q-70 0-109 52.5T29 188q0 50 15.5 102.5T88 388q34 55 77.5 85t88.5 30q25 0 46-8.5t38-25.5q18-17 29.5-41.5T379 388L159 199q7-64 26.5-102T231 59zm-27 413q-25-15-37-66t-12-138q0-9 .5-19t1.5-26l115 109q-1 22-5 43t-11 39q-12 29-28 46.5T204 472z"/><glyph unicode="ı" horiz-adv-x="323" d="M31 433l188 67V86l74-86H25l74 86v270z"/><glyph unicode="Ĳ" horiz-adv-x="691" d="M319 0H55l70 106v473L55 685h264l-70-106V106zm53 685h264l-70-106V4q0-44-37-91.5T428-176l-7 4q9 19 15 47t6 52v652z"/><glyph unicode="ĳ" horiz-adv-x="557" d="M48 639l84 92 83-92-83-93zm299 0l82 92 81-92-81-93zM12 433l183 67V86l74-86H80v356zm363-77l-65 77 179 67V6q0-57-33.5-116.5T359-225l-6 3q11 14 16.5 56T375-63v419z"/><glyph unicode="Ĺ" horiz-adv-x="610" d="M170 740h-14l12 129h125zM53 0l57 106v475L53 685h253l-72-105V36h191l138 181h4L557 0H53z"/><glyph unicode="Ľ" horiz-adv-x="614" d="M471 711q31-20 54-48t23-49q0-45-33-90.5T408 429l-13 10q30 26 46 53t16 51q0 10-3 18t-25 34l-37 31zM53 0l57 106v475L53 685h253l-72-105V36h191l138 181h4L557 0H53z"/><glyph unicode="Ŀ" horiz-adv-x="614" d="M53 0l57 106v475L53 685h253l-72-105V36h191l138 181h4L557 0H53zm315 379l82 93 81-93-81-92z"/><glyph unicode="ŀ" horiz-adv-x="441" d="M12 517l68 29v30l-68 77 183 57V86l74-86H80v440zm254-254l82 93 81-93-81-92z"/><glyph unicode="Ł" horiz-adv-x="624" d="M565 0H61l57 106v183l-94-29v62l94 29v230L61 685h253l-72-105V389l125 39v-64l-125-38V36h191l138 181h4z"/><glyph unicode="Ń" horiz-adv-x="756" d="M361 740h-14l12 129h125zM174 487V86l82-86H52l70 93v465L30 685h157l395-555v469l-82 86h204l-70-93V58l41-58H527z"/><glyph unicode="Ň" horiz-adv-x="756" d="M379 799l85 70h14l-60-129h-79l-59 129h15zM174 487V86l82-86H52l70 93v465L30 685h157l395-555v469l-82 86h204l-70-93V58l41-58H527z"/><glyph unicode="Œ" horiz-adv-x="994" d="M885 372v-40H625V36h165l137 183 5-2L922 0H339Q216 0 136.5 90.5T57 313q0 165 96.5 268.5T411 685h493V475h-6L782 649H625V372h260zM406 36h95v612H384q-91 0-141.5-72.5T192 396q0-157 59-258.5T406 36z"/><glyph unicode="œ" horiz-adv-x="735" d="M546 59q20 0 42 17t45 51q16 23 29.5 48t24.5 52l16-10q-26-86-88-157.5T492-12q-39 0-69 17t-49 49q-35-33-75-50.5T218-14q-84 0-136.5 58T29 199q0 125 70 214t172 89q52 0 93-19.5t68-56.5q25 29 52 48.5t48 24.5q31 7 58 2.5t49-20.5q24-17 39.5-46t15.5-47L474 199q7-64 26.5-102T546 59zm-74 226q0-6-.5-12.5T470 252l2-29 115 109q-1 22-5 43t-11 39q-12 29-28 46.5T519 472q-22-14-33.5-54T471 312q1-5 1-10.5V285zm-317-19q0-38 4.5-73t13.5-65q15-48 37.5-78.5T251 19q20 0 40.5 25.5T325 114q7 26 11 58t4 68q0 39-5 73t-15 62q-16 43-41 69t-47 26q-37 0-57-52t-20-152z"/><glyph unicode="Ŕ" horiz-adv-x="696" d="M304 740h-14l12 129h125zm118-401L570 98 671 0H478Q367 197 341.5 239.5T295 312l-45-4V106L320 0H55l71 106v473L55 685h229q133 0 209.5-45.5T570 508q0-53-39.5-97.5T422 339zm-172 2q78 2 129 44t51 111q0 79-45 119t-135 40V341z"/><glyph unicode="ŕ" horiz-adv-x="409" d="M205 552h-15l18 129h120zm132-48l84-165-3-4-132 36q-7-3-27-49.5T221 221q-17-50-25.5-91T187 61l8-61H72v356L4 433l183 67V182q24 94 60.5 179.5T324 504h13z"/><glyph unicode="Ř" horiz-adv-x="696" d="M313 799l84 70h15l-60-129h-79l-60 129h15zm109-460L570 98 671 0H478Q367 197 341.5 239.5T295 312l-45-4V106L320 0H55l71 106v473L55 685h229q133 0 209.5-45.5T570 508q0-53-39.5-97.5T422 339zm-172 2q78 2 129 44t51 111q0 79-45 119t-135 40V341z"/><glyph unicode="ř" horiz-adv-x="409" d="M205 611l75 67 15 3-49-129h-82l-49 129 15-3zm132-107l84-165-3-4-132 36q-7-3-27-49.5T221 221q-17-50-25.5-91T187 61l8-61H72v356L4 433l183 67V182q24 94 60.5 179.5T324 504h13z"/><glyph unicode="Ś" horiz-adv-x="524" d="M253 740h-14l12 129h125zM235-8Q186-8 132.5 2T46 28L34 268h11q25-103 87-170.5T266 30q46 0 76.5 24.5T373 120q0 45-28 78t-122 77q-58 27-84.5 43.5T93 353q-28 28-42 62t-14 77q0 87 55.5 140T244 685h136l46 15V484l-8 1q-26 78-78.5 123T221 653q-41 0-66-24.5T130 562q0-40 29-70t125-72q58-26 85-41t47-32q31-26 46.5-59t15.5-73q0-109-62.5-166T235-8z"/><glyph unicode="ś" horiz-adv-x="343" d="M185 552h-15l18 129h120zm29-62h71l5-148-6-1q-30 47-65.5 74T152 442q-19 0-27-8.5t-8-29.5q0-17 15.5-37t69.5-64q70-57 92.5-89.5T317 150q0-62-51-106T132 0H50L26 170l3 9q54-79 91-110t72-31q23 0 34.5 10T238 78q0 25-18 50.5T143 199q-63 49-82.5 78T41 335q0 62 49.5 108.5T214 490z"/><glyph unicode="Š" horiz-adv-x="541" d="M278 799l85 70h15l-60-129h-80l-59 129h15zM247-8Q198-8 144.5 2T58 28L46 268h11q25-103 87-170.5T278 30q46 0 76.5 24.5T385 120q0 45-28 78t-122 77q-58 27-84.5 43.5T105 353q-28 28-42 62t-14 77q0 87 55.5 140T256 685h136l46 15V484l-8 1q-26 78-78.5 123T233 653q-41 0-66-24.5T142 562q0-40 29-70t125-72q58-26 85-41t47-32q31-26 46.5-59t15.5-73q0-109-62.5-166T247-8z"/><glyph unicode="š" horiz-adv-x="343" d="M185 611l75 67 15 3-49-129h-82L95 681l15-3zm29-121h71l5-148-6-1q-30 47-65.5 74T152 442q-19 0-27-8.5t-8-29.5q0-17 15.5-37t69.5-64q70-57 92.5-89.5T317 150q0-62-51-106T132 0H50L26 170l3 9q54-79 91-110t72-31q23 0 34.5 10T238 78q0 25-18 50.5T143 199q-63 49-82.5 78T41 335q0 62 49.5 108.5T214 490z"/><glyph unicode="Ť" horiz-adv-x="660" d="M314 799l85 70h14l-60-129h-79l-59 129h15zM34 466v219h577V466l-6-1-127 185h-96V106L453 0H188l70 106v543h-92L38 465z"/><glyph unicode="Ů" horiz-adv-x="763" d="M505 808q0-40-27.5-69T412 710q-39 0-66.5 28.5T318 808t27.5 69.5T412 906q38 0 65.5-29t27.5-69zm-32 0q0 26-18 45t-43 19-43-19-18-45 18-45 43-19 43 19 18 45zM56 685h265l-70-106V236q0-106 39.5-154.5T432 33q81 0 122 67.5T595 301v294l-73 90h190l-71-90V277q0-60-8-98t-31-83q-27-52-81.5-81.5T396-15q-135 0-202.5 60T126 221v359z"/><glyph unicode="ů" horiz-adv-x="522" d="M331 646q0-34-23-58t-55-24-55 24-23 58 23 58 55 24 55-24 23-58zm-28 0q0 22-14.5 37.5T253 699t-35.5-15.5T203 646t14.5-37.5T253 593t35.5 15.5T303 646zM441 77l68-77H326v322q-23-88-66.5-186T188 0L98-8Q87 51 83 89.5T79 163v241L5 490l189 20V346q0-106 1.5-170.5T201 73q53 103 89 203.5T326 429l-15 61h130V77z"/><glyph unicode="Ŵ" horiz-adv-x="1005" d="M413 740l59 129h79l60-129h-14l-85 70-85-70h-14zm307-599l143 457-82 87h199l-64-86L712-12h-58L516 377 380-12h-58L86 626l-49 59h260l-77-61 157-439 9-37 109 288-69 192-47 57h260l-78-61 148-439z"/><glyph unicode="ŵ" horiz-adv-x="707" d="M318 552l49 129h82l49-129-15 3-75 67-75-67zm306-117l-60 49v6h143q-5-65-26-142.5T628 202q-40-88-90.5-144T431-15l-49 278Q340 151 282 78T159-15L93 358 0 427l180 95 75-440-1-4q49 46 80 122.5T366 351q-2 10-4.5 21.5T353 413q-6 26-9.5 43t-7.5 34h120l71-408-1-4q31 27 55 70.5t39 97.5q18 63 19 119.5T624 435z"/><glyph unicode="Ŷ" horiz-adv-x="689" d="M275 740l60 129h79l60-129h-15l-84 70-85-70h-15zm131-639L486 0H202l80 101v180L113 579 26 685h306l-81-106h-1l112-189 15-33 125 224-81 104h242l-98-94-159-273V101z"/><glyph unicode="ŷ" horiz-adv-x="516" d="M168 552l49 129h82l49-129-15 3-75 67-75-67zM35-90q40-33 99.5-58t93.5-25q58 0 84 47.5T339 25v226q-41-108-96.5-177T124-15L87 411 5 490h185l32-405q55 52 86.5 148T340 420v70h113V75q0-55-25.5-109.5T356-134q-47-46-103.5-72.5T146-233h-6L29-97z"/><glyph unicode="Ÿ" horiz-adv-x="689" d="M181 830l74 87 73-87-73-88zm222 0l74 87 73-87-73-88zm3-729L486 0H202l80 101v180L113 579 26 685h306l-81-106h-1l112-189 15-33 125 224-81 104h242l-98-94-159-273V101z"/><glyph unicode="Ź" horiz-adv-x="668" d="M303 740h-14l17 129h120zM198 36h269l138 181h4L598 0H51l-7 12 405 637H223L90 466h-4l6 229 101-10h408l7-14z"/><glyph unicode="ź" horiz-adv-x="425" d="M226 552h-15l18 129h120zM52 498l47-8h313L180 162q28 20 59 30.5t61 10.5q55 0 85-31t30-87q0-54-22-110t-62-101q-41-48-93-73.5T130-225q-36 0-67 11.5T4-179l12 18q38-28 62.5-36t53.5-8q79 0 132 46.5T317-35q0 58-26 92.5T220 92q-43 0-76-11T96 50L48-12H23l280 391H100L39 276l-6-1z"/><glyph unicode="Ż" horiz-adv-x="668" d="M264 820l68 80 66-80-66-81zM198 36h269l138 181h4L598 0H51l-7 12 405 637H223L90 466h-4l6 229 101-10h408l7-14z"/><glyph unicode="ż" horiz-adv-x="425" d="M150 621l76 78 75-78-75-79zM52 498l47-8h313L180 162q28 20 59 30.5t61 10.5q55 0 85-31t30-87q0-54-22-110t-62-101q-41-48-93-73.5T130-225q-36 0-67 11.5T4-179l12 18q38-28 62.5-36t53.5-8q79 0 132 46.5T317-35q0 58-26 92.5T220 92q-43 0-76-11T96 50L48-12H23l280 391H100L39 276l-6-1z"/><glyph unicode="Ž" horiz-adv-x="668" d="M341 799l85 70h14l-60-129h-79l-59 129h15zM198 36h269l138 181h4L598 0H51l-7 12 405 637H223L90 466h-4l6 229 101-10h408l7-14z"/><glyph unicode="ž" horiz-adv-x="425" d="M226 611l75 67 15 3-49-129h-82l-49 129 15-3zM52 498l47-8h313L180 162q28 20 59 30.5t61 10.5q55 0 85-31t30-87q0-54-22-110t-62-101q-41-48-93-73.5T130-225q-36 0-67 11.5T4-179l12 18q38-28 62.5-36t53.5-8q79 0 132 46.5T317-35q0 58-26 92.5T220 92q-43 0-76-11T96 50L48-12H23l280 391H100L39 276l-6-1z"/><glyph unicode="ˆ" horiz-adv-x="213" d="M16 552l49 129h82l49-129-15 3-75 67-75-67z"/><glyph unicode="ˇ" horiz-adv-x="212" d="M106 611l75 67 15 3-49-129H65L16 681l15-3z"/><glyph unicode="˙" horiz-adv-x="247" d="M48 621l76 78 75-78-75-79z"/><glyph unicode="˚" horiz-adv-x="190" d="M172 628q0-34-23-58t-55-24-55 24-23 58 23 58 55 24 55-24 23-58zm-28 0q0 22-14.5 37.5T94 681t-35.5-15.5T44 628t14.5-37.5T94 575t35.5 15.5T144 628z"/><glyph unicode="˜" horiz-adv-x="361" d="M127 606q-8 0-16.5-9.5T89 563l-14 9 60 109q8-1 18-2t29-4q36-4 53.5-5.5T268 668q8 0 17 7t25 27l14-6-56-103q-9 1-19.5 2t-31.5 4q-37 4-55.5 5.5T127 606z"/><glyph unicode="Ẁ" horiz-adv-x="1005" d="M512 740L389 869h125l12-129h-14zm208-599l143 457-82 87h199l-64-86L712-12h-58L516 377 380-12h-58L86 626l-49 59h260l-77-61 157-439 9-37 109 288-69 192-47 57h260l-78-61 148-439z"/><glyph unicode="ẁ" horiz-adv-x="707" d="M414 552L291 681h120l18-129h-15zm210-117l-60 49v6h143q-5-65-26-142.5T628 202q-40-88-90.5-144T431-15l-49 278Q340 151 282 78T159-15L93 358 0 427l180 95 75-440-1-4q49 46 80 122.5T366 351q-2 10-4.5 21.5T353 413q-6 26-9.5 43t-7.5 34h120l71-408-1-4q31 27 55 70.5t39 97.5q18 63 19 119.5T624 435z"/><glyph unicode="Ẃ" horiz-adv-x="1005" d="M509 740h-14l12 129h125zm211-599l143 457-82 87h199l-64-86L712-12h-58L516 377 380-12h-58L86 626l-49 59h260l-77-61 157-439 9-37 109 288-69 192-47 57h260l-78-61 148-439z"/><glyph unicode="ẃ" horiz-adv-x="707" d="M408 552h-15l18 129h120zm216-117l-60 49v6h143q-5-65-26-142.5T628 202q-40-88-90.5-144T431-15l-49 278Q340 151 282 78T159-15L93 358 0 427l180 95 75-440-1-4q49 46 80 122.5T366 351q-2 10-4.5 21.5T353 413q-6 26-9.5 43t-7.5 34h120l71-408-1-4q31 27 55 70.5t39 97.5q18 63 19 119.5T624 435z"/><glyph unicode="Ẅ" horiz-adv-x="1005" d="M322 829l75 87 72-87-72-88zm223 0l74 87 73-87-73-88zm175-688l143 457-82 87h199l-64-86L712-12h-58L516 377 380-12h-58L86 626l-49 59h260l-77-61 157-439 9-37 109 288-69 192-47 57h260l-78-61 148-439z"/><glyph unicode="ẅ" horiz-adv-x="707" d="M254 622l62 76 61-76-61-77zm185 0l62 76 61-76-61-77zm185-187l-60 49v6h143q-5-65-26-142.5T628 202q-40-88-90.5-144T431-15l-49 278Q340 151 282 78T159-15L93 358 0 427l180 95 75-440-1-4q49 46 80 122.5T366 351q-2 10-4.5 21.5T353 413q-6 26-9.5 43t-7.5 34h120l71-408-1-4q31 27 55 70.5t39 97.5q18 63 19 119.5T624 435z"/><glyph unicode="Ỳ" horiz-adv-x="689" d="M374 740L251 869h124l13-129h-14zm32-639L486 0H202l80 101v180L113 579 26 685h306l-81-106h-1l112-189 15-33 125 224-81 104h242l-98-94-159-273V101z"/><glyph unicode="ỳ" horiz-adv-x="516" d="M264 552L141 681h120l18-129h-15zM35-90q40-33 99.5-58t93.5-25q58 0 84 47.5T339 25v226q-41-108-96.5-177T124-15L87 411 5 490h185l32-405q55 52 86.5 148T340 420v70h113V75q0-55-25.5-109.5T356-134q-47-46-103.5-72.5T146-233h-6L29-97z"/><glyph horiz-adv-x="463"/><glyph horiz-adv-x="927"/><glyph horiz-adv-x="463"/><glyph horiz-adv-x="927"/><glyph horiz-adv-x="309"/><glyph horiz-adv-x="231"/><glyph horiz-adv-x="154"/><glyph horiz-adv-x="154"/><glyph horiz-adv-x="115"/><glyph horiz-adv-x="180"/><glyph horiz-adv-x="51"/><glyph unicode="‐" horiz-adv-x="294" d="M264 244H41v76h223v-76z"/><glyph unicode="‑" horiz-adv-x="294" d="M264 244H41v76h223v-76z"/><glyph unicode="‒" horiz-adv-x="294" d="M264 244H41v76h223v-76z"/><glyph unicode="–" horiz-adv-x="500" d="M477 243H23v66h454v-66z"/><glyph unicode="—" horiz-adv-x="900" d="M858 243H42v66h816v-66z"/><glyph unicode="‘" horiz-adv-x="248" d="M111 429q-31 20-54 48t-23 49q0 45 33 90.5T174 711l13-10q-30-26-46-53t-16-51q0-10 3-18t25-34l37-31z"/><glyph unicode="’" horiz-adv-x="248" d="M113 711q31-20 54-48t23-49q0-45-33-90.5T50 429l-13 10q30 26 46 53t16 51q0 10-3 18t-25 34l-37 31z"/><glyph unicode="‚" horiz-adv-x="227" d="M113 159q31-20 54-48t23-49q0-45-33-90.5T50-123l-13 10q30 26 46 53T99-9q0 10-3 18T71 43L34 74z"/><glyph unicode="“" horiz-adv-x="425" d="M116 429q-31 19-54 47t-23 50q0 45 33 90.5T179 711l13-10q-30-26-46-53t-16-51q0-11 4-20.5t24-31.5l37-31zm190 0q-31 20-54 48t-23 49q0 45 33 90.5T369 711l13-10q-29-25-45-52t-16-52q0-10 3.5-19t23.5-33l37-31z"/><glyph unicode="”" horiz-adv-x="425" d="M118 711q31-20 54-48t23-49q0-45-33-90.5T55 429l-13 10q29 25 45 52t16 52q0 10-3.5 19T76 595l-37 31zm190 0q31-19 54-47t23-50q0-45-33-90.5T245 429l-13 10q30 26 46 53t16 51q0 11-4 20.5T266 595l-37 31z"/><glyph unicode="„" horiz-adv-x="427" d="M118 160q31-20 54-48t23-49q0-45-33-90.5T55-122l-13 10q29 25 45 52t16 52q0 10-3.5 19T76 44L39 75zm190 0q31-19 54-47t23-50q0-45-33-90.5T245-122l-13 10q30 26 46 53t16 51q0 11-4 20.5T266 44l-37 31z"/><glyph unicode="†" horiz-adv-x="370" d="M0 376v114h152l-27 210h120l-27-210h66l86 74V450H245v-88L192-80h-14l-53 442v88H86z"/><glyph unicode="‡" horiz-adv-x="370" d="M284 180l86 74V140H218l27-210H125l27 210H86L0 66v114h152v270H86L0 376v114h152l-27 210h120l-27-210h66l86 74V450H218V180h66z"/><glyph unicode="•" horiz-adv-x="347" d="M51 263l123 139 122-139-122-138z"/><glyph unicode="…" horiz-adv-x="743" d="M32 66l82 92 81-92-81-92zm258 0l82 92 81-92-81-92zm258 0l82 92 81-92-81-92z"/><glyph horiz-adv-x="185"/><glyph unicode="‹" horiz-adv-x="296" d="M86 246h85L278 28l-10-10L33 246l235 228 10-17z"/><glyph unicode="›" horiz-adv-x="296" d="M214 246h-85L22 464l10 10 235-228L32 18 22 35z"/><glyph unicode="⁄" horiz-adv-x="470" d="M473 719L43-33H0l429 752h44z"/><glyph horiz-adv-x="231"/><glyph unicode="⁰" horiz-adv-x="409" d="M48 569q0 88 48.5 151.5T222 784q62 0 100.5-52T361 603q0-88-49-151.5T186 388q-61 0-99.5 52T48 569zm174-152q27 0 43 35t16 81q0 92-26.5 157T189 755q-29 0-44-29.5T130 639q0-93 26.5-157.5T222 417z"/><glyph unicode="⁴" horiz-adv-x="387" d="M272 549h87v-29h-87v-52l64-42H133l59 42v53H28l162 284h97L97 550h94v51l81 113V549z"/><glyph unicode="⁵" horiz-adv-x="340" d="M286 728H99l-14-76 26 11q17 7 34 10.5t33 3.5q54 0 93-33.5t39-83.5q0-64-47.5-99T127 426H46q1 33 1.5 60.5T48 535h4q8-17 19-32t26-28q16-14 33-21.5t34-7.5q37 0 51 20.5t14 68.5q0 62-19 89.5T153 652q-18 0-37.5-7.5T77 622l-2-11H52l27 181 2 12h190l39 32-6-32z"/><glyph unicode="⁶" horiz-adv-x="355" d="M164 421q-59 0-96 35t-37 92q0 82 70.5 153T293 817l4-16q-70-27-114-69t-60-98q24 13 41.5 18.5T196 658q52 0 85-30.5t33-81.5q0-50-43-87.5T164 421zm71 111q0 43-21.5 71.5T163 632q-10 0-20.5-4T118 612q-3-13-4.5-26.5T112 551q0-50 18-79.5t48-29.5q26 0 41.5 27t15.5 63z"/><glyph unicode="⁷" horiz-adv-x="362" d="M44 680h-2v122h278L104 414l-27 10 160 302H76z"/><glyph unicode="⁸" horiz-adv-x="363" d="M123 618q-47 38-57 57.5T56 719q0 45 38.5 72.5T189 819q43 0 75.5-21.5T297 743q0-25-14.5-45T234 658q55-35 72-60t17-57q0-54-46.5-87T170 421q-57 0-93.5 26T40 514q0 18 6.5 34T66 578q7 7 16 14t41 26zm-7 123q0-14 9.5-25.5T156 693q12-6 34-15.5t29-12.5q17 12 25 28.5t8 41.5q0 31-19.5 48.5T183 801q-29 0-48-16.5T116 741zm141-231q0 22-9.5 38T217 577q-15 9-44.5 21T142 610q-26-16-41.5-40.5T85 517q0-35 23-56.5t63-21.5 63 19 23 52z"/><glyph unicode="⁹" horiz-adv-x="355" d="M195 815q61 0 99-35t38-92q0-82-72.5-153T62 419l-4 16q72 27 117 69t62 98q-26-13-43.5-18.5T162 578q-54 0-88 30.5T40 690q0 50 44.5 87.5T195 815zm-74-111q0-43 22.5-71.5T196 604q11 0 21.5 4.5T242 624q3 13 4.5 26.5T248 685q0 50-18.5 79.5T180 794q-27 0-43-27t-16-63z"/><glyph unicode="⅛" horiz-adv-x="766" d="M632 719L202-33h-43l429 752h44zM78 544l-1 1 146 140V339l64-42H84l59 42v228zm628-232q0-25-14.5-45T643 227q55-35 72-60t17-57q0-54-46.5-87T579-10q-57 0-93.5 26T449 83q0 18 6.5 34t19.5 30q7 7 16 14t41 26q-47 38-57 57.5T465 288q0 45 38.5 72.5T598 388q43 0 75.5-21.5T706 312zm-45-8q0 31-19.5 48.5T592 370q-29 0-48-16.5T525 310q0-14 9.5-25.5T566 262q11-6 33-15.5t29-12.5q17 12 25 28.5t8 41.5zM494 86q0-35 23-56.5T580 8t63 19 23 52q0 22-9.5 38T626 146q-15 9-44.5 21T551 179q-26-16-41.5-40.5T494 86z"/><glyph unicode="⅜" horiz-adv-x="788" d="M627 719L197-33h-43l429 752h44zM340 425q0-31-30-56.5T222 324q-38-12-83.5-20T62 296l-5 19q74 0 125 23.5t51 64.5q0 35-26.5 56.5T121 491q-3 0-10-1.5t-11-2.5l-2 11 23 7q73 25 97.5 46.5T243 599q0 30-22.5 48T161 665q-28 0-48.5-18T69 577h-3v108h104q79 0 121.5-19.5T334 608q0-30-35.5-53.5T184 509q76-6 116-27.5t40-56.5zm380-113q0-25-14.5-45T657 227q55-35 72-60t17-57q0-54-46.5-87T593-10q-57 0-93.5 26T463 83q0 18 6.5 34t19.5 30q7 7 16 14t41 26q-47 38-57 57.5T479 288q0 45 38.5 72.5T612 388q43 0 75.5-21.5T720 312zm-45-8q0 31-19.5 48.5T606 370q-29 0-48-16.5T539 310q0-14 9.5-25.5T580 262q11-6 33-15.5t29-12.5q17 12 25 28.5t8 41.5zM508 86q0-35 23-56.5T594 8t63 19 23 52q0 22-9.5 38T640 146q-15 9-44.5 21T565 179q-26-16-41.5-40.5T508 86z"/><glyph unicode="⅝" horiz-adv-x="767" d="M615 719L185-33h-43l429 752h44zM286 609H99l-14-76 26 11q17 7 34 10.5t33 3.5q54 0 93-33.5t39-83.5q0-64-47.5-99T127 307H46q1 33 1.5 60.5T48 416h4q8-17 19-32t26-28q16-14 33-21.5t34-7.5q37 0 51 20.5t14 68.5q0 62-19 89.5T153 533q-18 0-37.5-7.5T77 503l-2-11H52l27 181 2 12h190l39 32-6-32zm307-221q43 0 75.5-21.5T701 312q0-25-14.5-45T638 227q55-35 72-60t17-57q0-54-46.5-87T574-10q-57 0-93.5 26T444 83q0 18 6.5 34t19.5 30q7 7 16 14t41 26q-47 38-57 57.5T460 288q0 45 38.5 72.5T593 388zm63-84q0 31-19.5 48.5T587 370q-29 0-48-16.5T520 310q0-14 9.5-25.5T560 262q12-6 34-15.5t29-12.5q17 12 25 28.5t8 41.5zM546 179q-26-16-41.5-40.5T489 86q0-35 23-56.5T575 8t63 19 23 52q0 22-9.5 38T621 146q-15 9-44.5 21T546 179z"/><glyph unicode="⅞" horiz-adv-x="770" d="M584 719L154-33h-43l429 752h44zM100 563h-2v122h278L160 297l-27 10 160 302H132zm592-251q0-25-14.5-45T629 227q55-35 72-60t17-57q0-54-46.5-87T565-10q-57 0-93.5 26T435 83q0 18 6.5 34t19.5 30q7 7 16 14t41 26q-47 38-57 57.5T451 288q0 45 38.5 72.5T584 388q43 0 75.5-21.5T692 312zm-45-8q0 31-19.5 48.5T578 370q-29 0-48-16.5T511 310q0-14 9.5-25.5T552 262q11-6 33-15.5t29-12.5q17 12 25 28.5t8 41.5zM480 86q0-35 23-56.5T566 8t63 19 23 52q0 22-9.5 38T612 146q-15 9-44.5 21T537 179q-26-16-41.5-40.5T480 86z"/><glyph unicode="◼" horiz-adv-x="490" d="M0 490h490V0H0v490z"/><glyph unicode="♥" horiz-adv-x="1000" d="M779 277q-18-23-41.5-47.5T615 114q-57-52-93.5-91T455-54q-30 38-66.5 77T295 114q-99 91-122.5 115.5T131 277q-40 51-59 103T53 490q0 98 51.5 151.5T248 695q75 0 126.5-40T455 531q29 84 80.5 124T662 695q92 0 143.5-53.5T857 490q0-58-19-110t-59-103z"/><glyph unicode="ﬀ" horiz-adv-x="666" d="M669 490l-7-24-185-30V281q0-77-5-135.5T455 40q-9-41-35.5-110T380-190h-8l-10 417v217l-153-8V256q0-77-5-135.5T187 15q-9-41-35.5-110T112-215h-8L94 202v225l-70 63h80q19 59 73.5 108T307 667l78 21 26-99q30 38 72 65t92 41l78 21 42-157h-4q-20 30-82.5 63.5T519 656q-23 0-41.5-22.5T459 575q0-19 4.5-40t13.5-45h192zM251 628q-23 0-41.5-22.5T191 547q0-15 2.5-29t6.5-28h167q0 13 6.5 32.5T392 562q-32 24-77 45t-64 21z"/><glyph horiz-adv-x="597" d="M126 451q38 45 89 68t112 23q97 0 158-73t61-181q0-57-19.5-112T471 79q-38-45-89-68T270-12q-97 0-158 73.5T51 242q0 57 19.5 112t55.5 97zM327 28q46 0 74 49.5T429 191q0 130-45.5 220.5T271 502q-49 0-75-43t-26-120q0-130 45-220.5T327 28z"/><glyph horiz-adv-x="382" d="M43 318l-1 2 208 221V66l90-66H51l85 66v260z"/><glyph horiz-adv-x="523" d="M482 119L471 0H54l-8 33q3 3 47 37.5t72 61.5q33 30 58 59.5t42 59.5q21 36 31.5 73t10.5 75q0 50-28.5 80T202 509q-45 0-77.5-33.5T63 363h-5v173h130q110 0 179-42t69-113q0-26-15-54t-46-58q-18-19-43-39.5T274 186q-25-17-63.5-42.5T165 114l1-3 59 5z"/><glyph d="M63 366h-5v170h147q113 0 173-30.5t60-89.5q0-48-48.5-85.5T235 260q104-11 158-45t54-88q0-47-41.5-87T285-29q-55-21-120.5-33.5T53-75l-8 25q102 0 176.5 39T296 93q0 55-37.5 88.5T136 232q-3-1-6-1.5l-9-1.5q-6-2-9-2.5t-6-1.5l-2 17 32 12q102 38 137.5 72t35.5 76q0 48-31.5 77T193 508q-39 0-68.5-29.5T63 366z"/><glyph horiz-adv-x="568" d="M394 45h122V-1H394v-74H280v74H47l229 537h139L140 45h141v112l113 146V45z"/><glyph horiz-adv-x="481" d="M386 416H120l-17-120 34 19q23 10 47 15.5t49 5.5q76 0 132.5-53T422 153q0-102-69-157T159-59H44q1 52 2 95.5t2 76.5h7q11-26 25.5-49.5T114 19q23-25 48-37.5T212-31q51 0 72 33.5T305 112q0 96-26.5 140T198 296q-18 0-43.5-8.5T98 262l-3-22-34 4 34 292h316z"/><glyph horiz-adv-x="503" d="M240-12q-85 0-137.5 56T50 193q0 126 110.5 247T442 631l6-19q-101-48-172-125.5T181 319q28 20 55 31t48 11q74 0 121.5-48.5T453 184q0-78-61.5-137T240-12zm101 175q0 68-31 112.5T238 320q-21 0-34-5.5T175 294q-5-22-7.5-47.5T165 192q0-84 24-129t70-45q37 0 59.5 44T341 163z"/><glyph horiz-adv-x="483" d="M45 343v193h408L125-99 93-83l246 499H96z"/><glyph horiz-adv-x="495" d="M157 294q-50 26-72 64t-22 95q0 71 55 114t137 43q61 0 100.5-33.5T395 487q0-41-19-72t-61-58q67-33 96.5-77.5T441 173q0-85-66.5-136.5T220-15q-79 0-126.5 40T46 131q0 46 25.5 84.5T157 294zm-9 193q0-22 13.5-40t43.5-35q16-10 47.5-24.5T294 368q34 23 49.5 49t15.5 58q0 52-30 81t-82 29q-43 0-71-26.5T148 487zm176-286q-10 13-26 24.5T259 249q-14 7-40.5 17.5T184 281q-47-28-74.5-66.5T82 135q0-54 38.5-89.5T221 10q59 0 93.5 30.5T349 125q0 23-6 42t-19 34z"/><glyph horiz-adv-x="497" d="M256 540q85 0 137.5-56T446 335q0-126-110.5-247T54-103l-6 19Q149-36 220 41.5T315 209q-28-20-55-31t-48-11q-74 0-121.5 48.5T43 344q0 78 61.5 137T256 540zM155 365q0-68 31-112.5t72-44.5q21 0 34 5.5t29 20.5q5 22 7.5 47.5T331 336q0 84-24 129t-70 45q-37 0-59.5-44T155 365z"/><glyph horiz-adv-x="217" d="M190 607l-82-93-81 93 81 92zM50 16l46 437h34l47-437-64-46z"/><glyph horiz-adv-x="504" d="M333 581l81-92-81-93-81 93zm87-551l8 1 23-171h-82q-155 0-224.5 38T75 15q0 39 21.5 73t64.5 63q33 22 88.5 47t62.5 29l11 108h23l17-122q-63-23-103-72.5T220 37q0-69 19-104.5t55-35.5q46 0 76 31t50 102z"/><glyph horiz-adv-x="314" d="M172 438q-8-16-19.5-30T126 382q-16-13-38.5-24.5T64 345v-4q1-1 23.5-12.5T125 304q16-12 27.5-26t19.5-30q7-16 11-34t4-38q0-13-1.5-24.5T178 120q-6-24-8-40t-2-35q0-61 20.5-93T247-80v-21q-79 0-116 38.5T94 57q0 11 2 24.5t7 42.5q7 32 9 48t2 29q0 33-12.5 61T66 309q-9 7-16.5 10.5T26 328v30q16 5 23.5 8.5T66 377q23 19 35.5 47t12.5 61q0 13-2 29t-9 48q-5 29-7 42.5T94 629q0 81 37 119.5T248 787v-21q-39 0-59.5-32T168 641q0-19 2-35t8-40q6-20 7.5-31.5T187 510q0-20-4-38t-11-34z"/><glyph horiz-adv-x="314" d="M142 248q8 16 19.5 30t26.5 26q16 13 38.5 24.5T250 341v4q-1 1-23.5 12.5T189 382q-16 12-27.5 26T142 438q-7 16-11 34t-4 38q0 13 1.5 24.5T136 566q6 24 8 40t2 35q0 61-20.5 93T67 766v21q79 0 116-38.5T220 629q0-11-2-24.5t-7-42.5q-7-32-9-48t-2-29q0-33 12.5-61t35.5-47q9-7 16.5-10.5T288 358v-30q-16-5-23.5-8.5T248 309q-23-19-35.5-47T200 201q0-13 2-29t9-48q5-29 7-42.5t2-24.5q0-81-37-119.5T66-101v21q39 0 59.5 32T146 45q0 19-2 35t-8 40q-6 20-7.5 31.5T127 176q0 20 4 38t11 34z"/><glyph horiz-adv-x="237" d="M16 778h181v-46H70V-37h127v-56H16v871z"/><glyph horiz-adv-x="237" d="M40-93v46h127v779H40v46h181V-93H40z"/><glyph horiz-adv-x="290" d="M104 595q15 27 33 52.5t42 52.5q21 23 54.5 56.5L270 793l14-15q-96-102-139-206t-43-229 43.5-229.5T284-92l-14-15Q196-40 161.5 2.5T103 90q-29 55-43 118T46 343q0 35 3.5 67.5T60 474q7 32 18 62t26 59z"/><glyph horiz-adv-x="290" d="M6-92Q101 9 144.5 113.5T188 343t-43 229T6 778l14 15q3-3 36.5-36t53.5-56q24-27 42.5-53t33.5-53q15-29 26-59.5t19-62.5q6-31 9.5-63t3.5-67q0-72-14-135T187 90q-24-45-58.5-87.5T20-107z"/><glyph horiz-adv-x="900" d="M858 310H42v66h816v-66z"/><glyph horiz-adv-x="500" d="M477 310H23v66h454v-66z"/><glyph horiz-adv-x="294" d="M264 305H41v76h223v-76z"/><glyph horiz-adv-x="446" d="M420 310H26v66h394v-66z"/><glyph horiz-adv-x="512" d="M77 343h85l107-218-10-10L24 343l235 228 10-17zm211 0h84l107-218-9-10-236 228 236 228 9-17z"/><glyph horiz-adv-x="512" d="M235 343h-84L44 561l9 10 236-228L53 115l-9 17zm211 0h-85L254 561l10 10 235-228-235-228-10 17z"/><glyph horiz-adv-x="296" d="M69 343h85l107-218-10-10L16 343l235 228 10-17z"/><glyph horiz-adv-x="296" d="M230 343h-85L38 561l10 10 235-228L48 115l-10 17z"/><glyph horiz-adv-x="708" d="M673 309q0-42-9-77t-29-71l-301-29 47 137q-49-61-93.5-94T208 142q-36 0-55 22.5T134 231q0 49 24.5 99t68.5 89q43 40 94 60t101 17l38-3 85 5-99-294 47-26 125 11q14 30 20 59t6 60q0 120-85 205t-205 85-205-85-85-205 85-205 205-85q62 0 118 25.5t98 71.5l20-20q-45-50-107-77.5T354-10q-132 0-225.5 93.5T35 309t93.5 225.5T354 628t225.5-93.5T673 309zm-451-15q0-34 12-48t43-14q25 0 60.5 25t57.5 57l56 155q-89 10-159-43.5T222 294z"/><glyph horiz-adv-x="445" d="M422 490l5-9-290-370h282L399 0H18l298 379H127l-56-73-6 2 9 190 47-8h301z"/><glyph horiz-adv-x="597" d="M51 242q0 57 19.5 112t55.5 97q38 45 89 68t112 23q97 0 158-73t61-181q0-57-19.5-112T471 79q-38-45-89-68T270-12q-97 0-158 73.5T51 242zm219 260q-49 0-75-43t-26-120q0-54 8.5-104t25.5-91l177 274q-22 41-50 62.5T270 502zm56-474q46 0 74.5 50T429 191q0 53-9 103.5T394 387L217 112q21-41 49-62.5T326 28z"/><glyph horiz-adv-x="555" d="M250-14q-90 0-146.5 81T47 268q0 138 71.5 236T303 602q90 0 146.5-81T506 320q0-138-71.5-236T250-14zm2 571q-42 0-64-46.5T166 377q0-63 8-122t24-107l142 329q-18 39-40.5 59.5T252 557zm48-526q39 0 63 54t24 126q0 64-8.5 123T354 440L213 111q17-39 39.5-59.5T300 31z"/></font>
</defs>
</svg>
